<svg width="200" height="60" viewBox="0 0 568 150" fill="none" xmlns="http://www.w3.org/2000/svg">
<path d="M190.191 66.9297C190.191 68.1797 189.957 69.1562 189.488 69.8594C189.059 70.5234 188.473 71.0312 187.73 71.3828C186.988 71.7344 186.148 71.9492 185.211 72.0273C184.312 72.1055 183.395 72.1641 182.457 72.2031C184.566 74.3906 186.246 76.9102 187.496 79.7617C188.746 82.6133 189.371 85.5625 189.371 88.6094C189.371 91.6172 188.863 94.5664 187.848 97.457C186.832 100.309 185.387 102.848 183.512 105.074C181.637 107.301 179.391 109.098 176.773 110.465C174.156 111.832 171.246 112.516 168.043 112.516C165.504 112.516 163.219 112.027 161.188 111.051C159.156 110.074 157.34 108.746 155.738 107.066C154.137 105.348 152.73 103.375 151.52 101.148C150.309 98.8828 149.273 96.4805 148.414 93.9414C147.555 91.3633 146.832 88.707 146.246 85.9727C145.699 83.2383 145.25 80.5625 144.898 77.9453C144.586 75.3281 144.352 72.8477 144.195 70.5039C144.078 68.1211 144.02 65.9922 144.02 64.1172C144.02 61.9297 144.117 59.5859 144.312 57.0859C144.547 54.5859 144.918 52.0664 145.426 49.5273C145.934 46.9883 146.617 44.5078 147.477 42.0859C148.336 39.6641 149.43 37.4375 150.758 35.4062C152.086 33.3359 153.648 31.5391 155.445 30.0156C157.281 28.4531 159.41 27.2812 161.832 26.5C162.73 26.1875 163.629 25.9531 164.527 25.7969C165.426 25.6406 166.324 25.5625 167.223 25.5625C171.129 25.5625 174.371 26.6172 176.949 28.7266C179.566 30.8359 181.52 33.6875 182.809 37.2812C183.043 37.8281 183.238 38.3945 183.395 38.9805C183.551 39.5273 183.629 40.0938 183.629 40.6797C183.629 41.3828 183.375 41.832 182.867 42.0273C182.359 42.2227 181.832 42.3203 181.285 42.3203C179.879 42.3203 178.746 42.0664 177.887 41.5586C177.027 41.0508 176.305 40.4258 175.719 39.6836C175.133 38.9414 174.605 38.1211 174.137 37.2227C173.707 36.3242 173.219 35.5039 172.672 34.7617C172.125 34.0195 171.441 33.3945 170.621 32.8867C169.801 32.3789 168.707 32.125 167.34 32.125C165.387 32.125 163.668 32.6719 162.184 33.7656C160.699 34.8594 159.41 36.3047 158.316 38.1016C157.223 39.8594 156.305 41.8711 155.562 44.1367C154.82 46.3633 154.234 48.6094 153.805 50.875C153.375 53.1016 153.062 55.25 152.867 57.3203C152.672 59.3906 152.574 61.1484 152.574 62.5938C152.574 64.1172 152.672 66.2266 152.867 68.9219C153.062 71.6172 153.375 74.5469 153.805 77.7109C154.273 80.875 154.879 84.0977 155.621 87.3789C156.402 90.6211 157.359 93.5703 158.492 96.2266C159.664 98.8828 161.031 101.051 162.594 102.73C164.195 104.41 166.051 105.25 168.16 105.25C169.996 105.25 171.656 104.723 173.141 103.668C174.625 102.574 175.875 101.227 176.891 99.625C177.945 97.9844 178.746 96.2461 179.293 94.4102C179.84 92.5352 180.113 90.7969 180.113 89.1953C180.113 87.6719 179.898 86.168 179.469 84.6836C179.039 83.1602 178.434 81.7344 177.652 80.4062C176.871 79.0391 175.934 77.7891 174.84 76.6562C173.746 75.4844 172.535 74.5078 171.207 73.7266C170.738 73.4141 170.211 73.1406 169.625 72.9062C169.078 72.6328 168.512 72.3984 167.926 72.2031C167.613 72.1641 167.008 72.125 166.109 72.0859C165.211 72.0078 164.293 71.9102 163.355 71.793C162.418 71.6758 161.578 71.5 160.836 71.2656C160.094 70.9922 159.723 70.6016 159.723 70.0938C159.723 69.3906 159.84 68.668 160.074 67.9258C160.309 67.1836 160.641 66.5195 161.07 65.9336C161.539 65.3477 162.066 64.8594 162.652 64.4688C163.277 64.0781 163.98 63.8828 164.762 63.8828C165.895 63.8828 167.105 64.0586 168.395 64.4102C169.723 64.7227 170.895 65.0938 171.91 65.5234C173.863 65.4062 175.797 65.2891 177.711 65.1719C179.625 65.0156 181.52 64.8203 183.395 64.5859C184.059 64.5078 184.703 64.4102 185.328 64.293C185.992 64.1758 186.676 64.1172 187.379 64.1172C188.316 64.1172 189.02 64.332 189.488 64.7617C189.957 65.1914 190.191 65.9141 190.191 66.9297ZM199.391 109.938C198.805 109.938 198.16 109.859 197.457 109.703C196.793 109.547 196.148 109.293 195.523 108.941C194.938 108.59 194.43 108.16 194 107.652C193.609 107.105 193.414 106.461 193.414 105.719C193.414 104.625 193.453 103.551 193.531 102.496C193.648 101.402 193.766 100.328 193.883 99.2734V99.332L194.234 95.4062C194.352 94 194.449 92.457 194.527 90.7773C194.605 89.0977 194.664 87.3984 194.703 85.6797C194.781 83.9219 194.84 82.2031 194.879 80.5234C194.918 78.8438 194.938 77.3008 194.938 75.8945C194.938 75.0742 194.918 74.2539 194.879 73.4336C194.879 72.5742 194.879 71.7148 194.879 70.8555C194.84 70.1133 194.82 69.293 194.82 68.3945C194.82 67.457 194.82 66.5977 194.82 65.8164C194.82 64.9961 194.918 64.332 195.113 63.8242C195.348 63.2773 195.973 63.0039 196.988 63.0039C197.887 63.0039 198.824 63.2383 199.801 63.707C200.816 64.1758 201.52 64.8398 201.91 65.6992H201.852C202.047 66.1289 202.184 66.832 202.262 67.8086C202.379 68.7461 202.457 69.5859 202.496 70.3281C203.16 69.3125 203.902 68.2383 204.723 67.1055C205.582 65.9727 206.5 64.9375 207.477 64C208.453 63.0234 209.488 62.2227 210.582 61.5977C211.676 60.9727 212.848 60.6602 214.098 60.6602C215.738 60.6602 216.988 61.0703 217.848 61.8906C218.707 62.7109 219.332 63.7461 219.723 64.9961C220.113 66.207 220.328 67.5156 220.367 68.9219C220.406 70.2891 220.426 71.5391 220.426 72.6719V73.1406C220.426 73.6094 220.406 74.0781 220.367 74.5469C220.367 74.9766 220.289 75.3867 220.133 75.7773C220.016 76.1289 219.781 76.4219 219.43 76.6562C219.117 76.8906 218.668 77.0078 218.082 77.0078C217.457 77.0078 216.793 76.9297 216.09 76.7734C215.387 76.5781 214.723 76.3047 214.098 75.9531C213.512 75.6016 213.004 75.1719 212.574 74.6641C212.145 74.1172 211.91 73.4922 211.871 72.7891C211.871 72.4766 211.871 72.1641 211.871 71.8516C211.871 71.5391 211.891 71.2266 211.93 70.9141C211.93 70.7188 211.93 70.4844 211.93 70.2109C211.969 69.8984 211.988 69.6055 211.988 69.332C210.738 70.582 209.625 72.125 208.648 73.9609C207.711 75.7969 206.852 77.75 206.07 79.8203C205.328 81.8906 204.684 83.9805 204.137 86.0898C203.59 88.1602 203.121 90.0352 202.73 91.7148V91.8906C202.613 93.1016 202.535 94.293 202.496 95.4648C202.457 96.6367 202.418 97.8477 202.379 99.0977C202.34 100.504 202.281 101.93 202.203 103.375C202.164 104.82 202.066 106.227 201.91 107.594C201.832 108.336 201.598 108.902 201.207 109.293C200.855 109.723 200.25 109.938 199.391 109.938ZM246.266 108.238C246.266 109.02 246.07 109.547 245.68 109.82C245.289 110.133 244.742 110.289 244.039 110.289C242.203 110.289 240.875 109.801 240.055 108.824C239.273 107.848 238.688 106.559 238.297 104.957C238.18 104.41 238.062 103.863 237.945 103.316C237.828 102.73 237.73 102.164 237.652 101.617C237.574 101.109 237.496 100.758 237.418 100.562C237.34 100.367 237.262 99.9961 237.184 99.4492C236.715 100.582 236.129 101.773 235.426 103.023C234.762 104.234 233.98 105.367 233.082 106.422C232.184 107.438 231.168 108.277 230.035 108.941C228.941 109.605 227.73 109.938 226.402 109.938C224.996 109.938 223.824 109.605 222.887 108.941C221.949 108.238 221.207 107.379 220.66 106.363C220.152 105.309 219.781 104.156 219.547 102.906C219.352 101.656 219.254 100.465 219.254 99.332C219.254 96.6758 219.508 93.8047 220.016 90.7188C220.562 87.5938 221.305 84.4883 222.242 81.4023C223.18 78.2773 224.273 75.2891 225.523 72.4375C226.773 69.5469 228.141 67.0273 229.625 64.8789V64.9375L229.977 64.4102C230.406 63.8242 230.895 63.1992 231.441 62.5352C232.027 61.832 232.711 61.4805 233.492 61.4805C234.234 61.4805 234.879 61.8125 235.426 62.4766C235.973 63.1016 236.363 63.7656 236.598 64.4688C237.613 64.6641 238.434 64.918 239.059 65.2305C239.684 65.5039 240.172 65.8555 240.523 66.2852C240.875 66.7148 241.109 67.2227 241.227 67.8086C241.344 68.3555 241.402 68.9609 241.402 69.625C241.402 69.8984 241.402 70.1914 241.402 70.5039C241.402 70.8164 241.383 71.1289 241.344 71.4414C241.305 71.7539 241.285 72.125 241.285 72.5547C241.285 72.9844 241.285 73.375 241.285 73.7266C241.285 74.1172 241.344 74.625 241.461 75.25C241.617 75.875 241.773 76.5195 241.93 77.1836L242.34 79.3516C242.535 80.4844 242.691 81.7734 242.809 83.2188C242.965 84.6641 243.141 86.1094 243.336 87.5547C243.492 89.0391 243.648 90.4844 243.805 91.8906C243.961 93.2578 244.117 94.5273 244.273 95.6992L245.68 104.371L245.855 105.367C245.934 105.875 246.012 106.344 246.09 106.773C246.207 107.203 246.266 107.691 246.266 108.238ZM232.848 74.5469C232.848 74.4688 232.828 74.3516 232.789 74.1953C232.75 74 232.711 73.8047 232.672 73.6094C231.773 75.5234 230.973 77.6133 230.27 79.8789C229.605 82.1055 229.039 84.3906 228.57 86.7344C228.141 89.0391 227.809 91.3633 227.574 93.707C227.379 96.0117 227.281 98.1992 227.281 100.27C227.281 100.465 227.281 100.641 227.281 100.797C227.281 100.953 227.301 101.109 227.34 101.266V101.324C228.277 99.8789 229.078 97.9844 229.742 95.6406C230.445 93.2578 231.031 90.7773 231.5 88.1992C231.969 85.582 232.301 83.0625 232.496 80.6406C232.73 78.1797 232.848 76.1484 232.848 74.5469ZM258.16 93.7656C258.16 95.6406 258.141 97.3594 258.102 98.9219C258.102 100.484 258.141 102.203 258.219 104.078L259.273 103.316L259.918 102.906C261.832 101.383 263.492 99.5273 264.898 97.3398C266.344 95.1133 267.535 92.75 268.473 90.25C269.41 87.75 270.094 85.1914 270.523 82.5742C270.992 79.918 271.227 77.3984 271.227 75.0156C271.227 74.5469 271.207 73.9023 271.168 73.082C271.168 72.2227 271.09 71.3828 270.934 70.5625C270.777 69.7422 270.543 69.0391 270.23 68.4531C269.918 67.8281 269.469 67.5156 268.883 67.5156C267.945 67.5156 266.988 68.082 266.012 69.2148C265.035 70.3477 264.117 71.6953 263.258 73.2578C262.438 74.8203 261.695 76.4023 261.031 78.0039C260.367 79.5664 259.879 80.7969 259.566 81.6953C259.566 81.7344 259.547 81.7539 259.508 81.7539C259.508 81.7539 259.508 81.7734 259.508 81.8125V81.8711C259.273 82.418 259.02 83.0039 258.746 83.6289C258.512 84.2539 258.355 84.8398 258.277 85.3867C258.199 85.9336 258.141 86.5586 258.102 87.2617C258.062 87.9258 258.043 88.6289 258.043 89.3711C258.043 89.7617 258.043 90.1523 258.043 90.543C258.082 90.8945 258.102 91.2266 258.102 91.5391C258.102 91.9688 258.102 92.3789 258.102 92.7695C258.141 93.1211 258.16 93.4531 258.16 93.7656ZM261.383 147.32C261.383 148.18 261.148 148.766 260.68 149.078C260.211 149.391 259.586 149.547 258.805 149.547C257.867 149.547 256.832 149.391 255.699 149.078C254.566 148.805 253.668 148.277 253.004 147.496C252.809 147.223 252.613 146.422 252.418 145.094C252.262 143.766 252.105 142.203 251.949 140.406C251.793 138.648 251.656 136.812 251.539 134.898C251.422 133.023 251.305 131.363 251.188 129.918L250.953 126.812C250.484 118.453 250.25 110.094 250.25 101.734C250.25 96.8516 250.328 92.0664 250.484 87.3789C250.68 82.6523 250.875 77.8672 251.07 73.0234L251.305 66.8711C251.305 66.2461 251.305 65.6406 251.305 65.0547C251.344 64.4297 251.422 63.8242 251.539 63.2383C251.734 62.7305 251.969 62.3398 252.242 62.0664C252.555 61.7539 253.043 61.5977 253.707 61.5977C255.387 61.5977 256.617 62.1055 257.398 63.1211C258.18 64.0977 258.629 65.3086 258.746 66.7539C259.996 65.0352 261.48 63.668 263.199 62.6523C264.957 61.6367 266.969 61.1289 269.234 61.1289C271.148 61.1289 272.75 61.5586 274.039 62.418C275.367 63.2773 276.422 64.3906 277.203 65.7578C277.984 67.0859 278.531 68.5898 278.844 70.2695C279.195 71.9102 279.371 73.5312 279.371 75.1328C279.371 78.2188 279.098 81.3047 278.551 84.3906C278.004 87.4375 277.145 90.4062 275.973 93.2969C274.84 96.1484 273.395 98.8633 271.637 101.441C269.879 103.98 267.809 106.246 265.426 108.238C265.113 108.512 264.742 108.805 264.312 109.117C263.883 109.43 263.434 109.723 262.965 109.996C262.496 110.27 262.008 110.504 261.5 110.699C261.031 110.895 260.602 110.992 260.211 110.992C259.781 110.992 259.41 110.895 259.098 110.699C258.785 110.504 258.512 110.27 258.277 109.996C258.355 112.691 258.453 115.484 258.57 118.375C258.727 121.266 258.902 124.156 259.098 127.047C259.293 129.977 259.527 132.867 259.801 135.719C260.113 138.57 260.484 141.324 260.914 143.98C261.031 144.488 261.129 145.016 261.207 145.562C261.324 146.148 261.383 146.734 261.383 147.32ZM305.562 98.2773C305.562 99.4492 305.23 100.66 304.566 101.91C303.941 103.16 303.121 104.312 302.105 105.367C301.09 106.383 299.918 107.223 298.59 107.887C297.301 108.551 296.012 108.883 294.723 108.883C292.887 108.883 291.305 108.531 289.977 107.828C288.648 107.086 287.496 106.109 286.52 104.898C285.543 103.648 284.742 102.242 284.117 100.68C283.531 99.1172 283.062 97.5156 282.711 95.875C282.359 94.1953 282.105 92.5352 281.949 90.8945C281.832 89.2148 281.773 87.6914 281.773 86.3242C281.773 85.1523 281.832 83.7656 281.949 82.1641C282.105 80.5625 282.34 78.9023 282.652 77.1836C283.004 75.4648 283.473 73.7656 284.059 72.0859C284.645 70.4062 285.367 68.9023 286.227 67.5742C287.125 66.2461 288.18 65.1719 289.391 64.3516C290.641 63.5312 292.066 63.1211 293.668 63.1211C294.918 63.1211 296.031 63.375 297.008 63.8828C298.023 64.3906 298.863 65.0742 299.527 65.9336C300.23 66.7539 300.758 67.7109 301.109 68.8047C301.5 69.8984 301.695 71.0312 301.695 72.2031C301.695 73.7266 301.344 75.3867 300.641 77.1836C299.938 78.9805 299.02 80.7188 297.887 82.3984C296.793 84.0781 295.543 85.6016 294.137 86.9688C292.77 88.2969 291.402 89.3125 290.035 90.0156C290.113 90.7188 290.27 91.7539 290.504 93.1211C290.738 94.4492 291.051 95.7773 291.441 97.1055C291.871 98.4336 292.359 99.5859 292.906 100.562C293.492 101.539 294.176 102.027 294.957 102.027C295.348 102.027 295.68 101.91 295.953 101.676C296.266 101.441 296.539 101.129 296.773 100.738C297.008 100.348 297.203 99.918 297.359 99.4492C297.555 98.9805 297.73 98.5312 297.887 98.1016L298.238 97.2812C298.316 97.1641 298.355 97.0859 298.355 97.0469C298.395 97.0078 298.434 96.9492 298.473 96.8711C298.746 96.3633 299 95.8945 299.234 95.4648C299.508 95.0352 299.879 94.6641 300.348 94.3516H300.289C300.445 94.1953 300.602 94.1172 300.758 94.1172C300.953 94.0781 301.129 94.0586 301.285 94.0586C301.715 94.0586 302.184 94.1953 302.691 94.4688C303.199 94.7422 303.668 95.0938 304.098 95.5234C304.527 95.9141 304.879 96.3633 305.152 96.8711C305.426 97.3398 305.562 97.8086 305.562 98.2773ZM293.961 72.4375C293.961 72.0469 293.941 71.6367 293.902 71.207C293.863 70.7773 293.766 70.4062 293.609 70.0938C293.062 70.7578 292.574 71.5586 292.145 72.4961C291.754 73.3945 291.422 74.3516 291.148 75.3672C290.875 76.3438 290.641 77.3398 290.445 78.3555C290.289 79.3711 290.172 80.3086 290.094 81.168C291.109 79.957 292.008 78.5898 292.789 77.0664C293.57 75.5039 293.961 73.9609 293.961 72.4375ZM331.578 36.168C331.578 36.5977 331.383 36.9688 330.992 37.2812C330.641 37.5547 330.211 37.7891 329.703 37.9844C329.195 38.1406 328.688 38.2578 328.18 38.3359C327.672 38.4141 327.281 38.4531 327.008 38.4531C326.109 38.4531 325.27 38.3164 324.488 38.043C323.707 37.7305 322.867 37.5547 321.969 37.5156C320.68 37.8672 319.527 38.6484 318.512 39.8594C317.496 41.0703 316.695 42.8281 316.109 45.1328C315.523 47.4375 315.191 50.3281 315.113 53.8047C315.035 57.2812 315.289 61.4805 315.875 66.4023C318.336 65.8945 320.621 65.4648 322.73 65.1133C324.879 64.7227 326.539 64.5273 327.711 64.5273C328.648 64.5273 329.293 64.7812 329.645 65.2891C329.996 65.7969 330.172 66.4414 330.172 67.2227C330.172 68.0039 330.094 68.7266 329.938 69.3906C329.781 70.0547 329.371 70.6016 328.707 71.0312L316.461 72.9062C316.656 74.5469 316.812 76.207 316.93 77.8867C317.086 79.5273 317.242 81.1484 317.398 82.75C318.023 87.8281 318.551 91.9883 318.98 95.2305C319.449 98.4727 319.82 101.07 320.094 103.023C320.406 104.938 320.641 106.324 320.797 107.184C320.992 108.004 321.129 108.57 321.207 108.883C321.285 109.156 321.324 109.273 321.324 109.234C321.363 109.195 321.383 109.234 321.383 109.352C321.383 110.172 321.129 110.738 320.621 111.051C320.113 111.402 319.508 111.578 318.805 111.578C318.258 111.578 317.672 111.52 317.047 111.402C316.461 111.324 315.875 111.188 315.289 110.992C314.703 110.797 314.176 110.523 313.707 110.172C313.238 109.82 312.906 109.391 312.711 108.883C312.398 106.227 312.027 103.688 311.598 101.266C311.168 98.8438 310.797 96.3242 310.484 93.707C310.172 90.6211 309.82 87.3398 309.43 83.8633C309.078 80.3867 308.785 77.0664 308.551 73.9023C308.395 73.9414 308.238 73.9609 308.082 73.9609C307.926 73.9219 307.75 73.9023 307.555 73.9023C306.93 73.9023 306.402 73.7656 305.973 73.4922C305.582 73.1797 305.387 72.6328 305.387 71.8516C305.387 70.9531 305.602 70.1328 306.031 69.3906C306.5 68.6484 307.184 68.1602 308.082 67.9258C307.965 65.7773 307.828 63.3945 307.672 60.7773C307.516 58.1602 307.457 55.5039 307.496 52.8086C307.535 50.0742 307.75 47.4375 308.141 44.8984C308.57 42.3203 309.312 40.0547 310.367 38.1016C311.422 36.1094 312.867 34.5078 314.703 33.2969C316.539 32.0859 318.902 31.4805 321.793 31.4805C322.379 31.4805 323.199 31.5781 324.254 31.7734C325.348 31.9687 326.441 32.2813 327.535 32.7109C328.629 33.1016 329.566 33.5898 330.348 34.1758C331.168 34.7617 331.578 35.4258 331.578 36.168ZM337.32 109.938C336.734 109.938 336.09 109.859 335.387 109.703C334.723 109.547 334.078 109.293 333.453 108.941C332.867 108.59 332.359 108.16 331.93 107.652C331.539 107.105 331.344 106.461 331.344 105.719C331.344 104.625 331.383 103.551 331.461 102.496C331.578 101.402 331.695 100.328 331.812 99.2734V99.332L332.164 95.4062C332.281 94 332.379 92.457 332.457 90.7773C332.535 89.0977 332.594 87.3984 332.633 85.6797C332.711 83.9219 332.77 82.2031 332.809 80.5234C332.848 78.8438 332.867 77.3008 332.867 75.8945C332.867 75.0742 332.848 74.2539 332.809 73.4336C332.809 72.5742 332.809 71.7148 332.809 70.8555C332.77 70.1133 332.75 69.293 332.75 68.3945C332.75 67.457 332.75 66.5977 332.75 65.8164C332.75 64.9961 332.848 64.332 333.043 63.8242C333.277 63.2773 333.902 63.0039 334.918 63.0039C335.816 63.0039 336.754 63.2383 337.73 63.707C338.746 64.1758 339.449 64.8398 339.84 65.6992H339.781C339.977 66.1289 340.113 66.832 340.191 67.8086C340.309 68.7461 340.387 69.5859 340.426 70.3281C341.09 69.3125 341.832 68.2383 342.652 67.1055C343.512 65.9727 344.43 64.9375 345.406 64C346.383 63.0234 347.418 62.2227 348.512 61.5977C349.605 60.9727 350.777 60.6602 352.027 60.6602C353.668 60.6602 354.918 61.0703 355.777 61.8906C356.637 62.7109 357.262 63.7461 357.652 64.9961C358.043 66.207 358.258 67.5156 358.297 68.9219C358.336 70.2891 358.355 71.5391 358.355 72.6719V73.1406C358.355 73.6094 358.336 74.0781 358.297 74.5469C358.297 74.9766 358.219 75.3867 358.062 75.7773C357.945 76.1289 357.711 76.4219 357.359 76.6562C357.047 76.8906 356.598 77.0078 356.012 77.0078C355.387 77.0078 354.723 76.9297 354.02 76.7734C353.316 76.5781 352.652 76.3047 352.027 75.9531C351.441 75.6016 350.934 75.1719 350.504 74.6641C350.074 74.1172 349.84 73.4922 349.801 72.7891C349.801 72.4766 349.801 72.1641 349.801 71.8516C349.801 71.5391 349.82 71.2266 349.859 70.9141C349.859 70.7188 349.859 70.4844 349.859 70.2109C349.898 69.8984 349.918 69.6055 349.918 69.332C348.668 70.582 347.555 72.125 346.578 73.9609C345.641 75.7969 344.781 77.75 344 79.8203C343.258 81.8906 342.613 83.9805 342.066 86.0898C341.52 88.1602 341.051 90.0352 340.66 91.7148V91.8906C340.543 93.1016 340.465 94.293 340.426 95.4648C340.387 96.6367 340.348 97.8477 340.309 99.0977C340.27 100.504 340.211 101.93 340.133 103.375C340.094 104.82 339.996 106.227 339.84 107.594C339.762 108.336 339.527 108.902 339.137 109.293C338.785 109.723 338.18 109.938 337.32 109.938ZM385.484 70.3281C385.484 70.7188 385.445 71.1289 385.367 71.5586C385.289 71.9883 385.211 72.3789 385.133 72.7305C385.055 73.1602 384.977 73.5703 384.898 73.9609C384.82 74.3125 384.781 74.6641 384.781 75.0156C384.781 78.6484 384.84 82.3008 384.957 85.9727C385.113 89.6055 385.504 93.2578 386.129 96.9297C386.324 98.3359 386.559 99.7031 386.832 101.031C387.105 102.359 387.418 103.707 387.77 105.074L387.887 105.426V105.309C388.004 105.582 388.102 105.875 388.18 106.188C388.297 106.461 388.355 106.754 388.355 107.066C388.355 107.496 388.238 107.848 388.004 108.121C387.809 108.395 387.555 108.609 387.242 108.766C386.93 108.922 386.578 109.02 386.188 109.059C385.836 109.098 385.504 109.117 385.191 109.117C383.902 109.117 382.867 108.98 382.086 108.707C381.344 108.395 380.738 107.984 380.27 107.477C379.801 106.93 379.449 106.285 379.215 105.543C379.02 104.801 378.844 103.98 378.688 103.082L378.512 102.027C378.355 101.48 378.258 100.895 378.219 100.27C378.18 99.957 378.141 99.8203 378.102 99.8594C378.102 99.8594 378.082 99.7031 378.043 99.3906C377.496 100.367 376.852 101.422 376.109 102.555C375.406 103.648 374.586 104.684 373.648 105.66C372.75 106.598 371.773 107.398 370.719 108.062C369.664 108.688 368.531 109 367.32 109C365.641 109 364.332 108.492 363.395 107.477C362.496 106.461 361.832 105.23 361.402 103.785C360.973 102.301 360.719 100.777 360.641 99.2148C360.562 97.6133 360.523 96.2266 360.523 95.0547C360.523 90.6016 360.66 86.1875 360.934 81.8125C361.246 77.4375 361.578 73.043 361.93 68.6289C361.93 68.5117 361.93 68.3555 361.93 68.1602C361.969 67.9648 361.988 67.8086 361.988 67.6914C362.027 67.1445 362.066 66.6367 362.105 66.168C362.145 65.6992 362.242 65.25 362.398 64.8203V64.8789C362.555 64.2539 362.77 63.8047 363.043 63.5312C363.355 63.2578 363.824 63.1211 364.449 63.1211C365.035 63.1211 365.621 63.2383 366.207 63.4727C366.793 63.668 367.32 63.9609 367.789 64.3516C368.258 64.7031 368.629 65.1328 368.902 65.6406C369.215 66.1484 369.371 66.7148 369.371 67.3398C369.371 67.6523 369.371 68.0234 369.371 68.4531C369.371 68.8828 369.352 69.2539 369.312 69.5664C369.312 69.8398 369.293 70.1914 369.254 70.6211C369.254 71.0117 369.254 71.3438 369.254 71.6172C368.941 75.3672 368.707 79.0977 368.551 82.8086C368.395 86.4805 368.316 90.2109 368.316 94C368.316 95.0547 368.316 96.1094 368.316 97.1641C368.355 98.2188 368.473 99.2734 368.668 100.328C369.957 98.6875 371.07 96.5977 372.008 94.0586C372.945 91.4805 373.727 88.7656 374.352 85.9141C375.016 83.0234 375.543 80.1719 375.934 77.3594C376.363 74.5078 376.676 71.9883 376.871 69.8008C376.871 69.6836 376.871 69.5469 376.871 69.3906C376.91 69.2344 376.93 69.0977 376.93 68.9805C376.969 68.5508 377.008 68.1406 377.047 67.75C377.086 67.3594 377.223 66.9883 377.457 66.6367C377.457 66.2852 377.477 65.9141 377.516 65.5234C377.555 65.1328 377.652 64.7812 377.809 64.4688C377.965 64.1172 378.18 63.8438 378.453 63.6484C378.766 63.4531 379.195 63.3555 379.742 63.3555C381.305 63.3555 382.535 63.8438 383.434 64.8203C384.332 65.7578 384.82 66.9688 384.898 68.4531C385.094 68.7656 385.23 69.0781 385.309 69.3906C385.426 69.6641 385.484 69.9766 385.484 70.3281ZM399.664 59.7227C399.664 60.3867 399.508 60.875 399.195 61.1875C398.922 61.4609 398.395 61.5977 397.613 61.5977C397.262 61.5977 396.715 61.5586 395.973 61.4805C395.23 61.3633 394.469 61.207 393.688 61.0117C392.945 60.8164 392.281 60.543 391.695 60.1914C391.148 59.8398 390.875 59.4102 390.875 58.9023C390.875 58.7461 390.934 58.3164 391.051 57.6133C391.168 56.8711 391.305 56.0898 391.461 55.2695C391.656 54.4492 391.812 53.707 391.93 53.043C392.086 52.3789 392.203 52.0078 392.281 51.9297V51.9883C392.477 51.6758 392.711 51.4805 392.984 51.4023C393.258 51.3242 393.531 51.2852 393.805 51.2852C394.156 51.2852 394.605 51.3438 395.152 51.4609C395.738 51.5391 396.305 51.6758 396.852 51.8711C397.438 52.0273 397.965 52.2422 398.434 52.5156C398.902 52.7891 399.195 53.082 399.312 53.3945C399.43 53.707 399.488 54.1367 399.488 54.6836C399.527 55.1914 399.527 55.6602 399.488 56.0898C399.488 56.2461 399.469 56.4414 399.43 56.6758C399.43 56.8711 399.43 57.0273 399.43 57.1445C399.43 57.3398 399.43 57.5352 399.43 57.7305C399.469 57.9258 399.508 58.1211 399.547 58.3164C399.586 58.5117 399.605 58.7266 399.605 58.9609C399.645 59.1953 399.664 59.4492 399.664 59.7227ZM401.832 106.422C401.832 107.32 401.617 107.965 401.188 108.355C400.797 108.707 400.152 108.883 399.254 108.883C398.785 108.883 398.258 108.824 397.672 108.707C397.125 108.59 396.578 108.434 396.031 108.238C395.484 108.004 394.977 107.73 394.508 107.418C394.039 107.105 393.688 106.754 393.453 106.363C393.297 106.129 393.16 105.406 393.043 104.195C392.926 102.984 392.828 101.48 392.75 99.6836C392.711 97.8867 392.652 95.875 392.574 93.6484C392.535 91.4219 392.496 89.1758 392.457 86.9102C392.457 84.6445 392.457 82.4375 392.457 80.2891C392.457 78.1406 392.457 76.2656 392.457 74.6641V70.1523C392.457 69.7617 392.457 69.3711 392.457 68.9805C392.496 68.5898 392.574 68.2578 392.691 67.9844C392.848 67.6719 393.062 67.418 393.336 67.2227C393.648 67.0273 394.078 66.9297 394.625 66.9297C396.344 66.9297 397.594 67.418 398.375 68.3945C399.195 69.332 399.703 70.6016 399.898 72.2031C400.094 74.5859 400.23 76.9688 400.309 79.3516C400.426 81.6953 400.523 84.0781 400.602 86.5C400.68 88.6875 400.738 90.8555 400.777 93.0039C400.855 95.1133 400.992 97.2227 401.188 99.332C401.227 99.7617 401.266 100.172 401.305 100.562C401.344 100.953 401.402 101.344 401.48 101.734C401.559 102.516 401.637 103.297 401.715 104.078C401.793 104.82 401.832 105.602 401.832 106.422ZM419.469 107.535C419.469 107.965 419.371 108.336 419.176 108.648C418.98 108.922 418.727 109.137 418.414 109.293C418.141 109.449 417.828 109.547 417.477 109.586C417.164 109.664 416.852 109.703 416.539 109.703C416.109 109.703 415.602 109.645 415.016 109.527C414.469 109.449 413.922 109.312 413.375 109.117C412.828 108.922 412.32 108.688 411.852 108.414C411.422 108.102 411.09 107.73 410.855 107.301C410.621 106.91 410.406 106.188 410.211 105.133C410.055 104.039 409.918 102.789 409.801 101.383C409.684 99.9375 409.586 98.4141 409.508 96.8125C409.43 95.1719 409.352 93.6094 409.273 92.125C409.234 90.6406 409.195 89.3125 409.156 88.1406C409.156 86.9297 409.156 86.0312 409.156 85.4453C409.156 82.7109 409.195 80.0742 409.273 77.5352C409.391 74.957 409.508 72.3203 409.625 69.625C409.43 69.625 409.234 69.6445 409.039 69.6836C408.844 69.7227 408.648 69.7422 408.453 69.7422C407.945 69.8203 407.418 69.8789 406.871 69.918C406.363 69.957 405.836 69.9766 405.289 69.9766C404.625 69.9766 404.039 69.8594 403.531 69.625C403.023 69.3906 402.77 68.8633 402.77 68.043C402.77 67.0664 402.984 66.2852 403.414 65.6992C403.844 65.1133 404.391 64.6641 405.055 64.3516C405.719 64 406.441 63.7656 407.223 63.6484C408.004 63.4922 408.766 63.375 409.508 63.2969C409.625 63.2969 409.703 63.2969 409.742 63.2969C409.781 63.2578 409.859 63.2383 409.977 63.2383C410.016 62.7695 410.055 62.2031 410.094 61.5391C410.133 60.8359 410.172 60.0742 410.211 59.2539C410.25 57.9648 410.309 56.5977 410.387 55.1523C410.465 53.668 410.543 52.2617 410.621 50.9336C410.699 49.5664 410.797 48.375 410.914 47.3594C411.031 46.3047 411.148 45.5625 411.266 45.1328C411.461 44.625 411.676 44.2148 411.91 43.9023C412.184 43.5898 412.672 43.4336 413.375 43.4336C414.938 43.4336 416.148 43.9414 417.008 44.957C417.867 45.9727 418.297 47.2227 418.297 48.707C418.297 50.4258 418.238 52.1445 418.121 53.8633C418.043 55.582 417.965 57.3203 417.887 59.0781L417.711 62.0664C418.688 61.9492 419.664 61.7734 420.641 61.5391C421.578 61.3438 422.516 61.168 423.453 61.0117C424.43 60.8555 425.367 60.7773 426.266 60.7773C427.047 60.7773 427.652 60.9922 428.082 61.4219C428.512 61.8125 428.727 62.3984 428.727 63.1797C428.727 64.0391 428.57 64.8789 428.258 65.6992C427.945 66.5195 427.398 67.1445 426.617 67.5742H426.676C426.52 67.6523 426.051 67.7695 425.27 67.9258C424.488 68.043 423.59 68.1602 422.574 68.2773C421.598 68.3945 420.621 68.5117 419.645 68.6289C418.707 68.7461 418.004 68.8242 417.535 68.8633H417.477C417.398 71.0508 417.34 73.2188 417.301 75.3672C417.262 77.4766 417.242 79.625 417.242 81.8125C417.242 84.8203 417.32 88.0234 417.477 91.4219C417.672 94.7812 417.984 97.9844 418.414 101.031L418.883 103.668C419.039 104.332 419.176 104.996 419.293 105.66C419.41 106.285 419.469 106.91 419.469 107.535Z" fill="black"/>
<path d="M78.9538 56.9623C78.3629 54.3353 80.0546 48.537 83.4877 53.8487C88.1998 61.1392 89.307 67.7292 89.506 67.9117L79.8028 58.1984L78.9538 56.9623Z" stroke="black" stroke-width="3"/>
<path d="M73.4367 74.7978C71.0393 73.5722 67.6635 68.5636 73.9425 69.3211C82.5607 70.3608 88.3351 73.724 88.6027 73.6877L74.93 74.9357L73.4367 74.7978Z" stroke="black" stroke-width="3"/>
<path d="M121.442 73.7978C123.84 72.5722 127.216 67.5636 120.937 68.3211C112.318 69.3608 106.544 72.724 106.276 72.6877L119.949 73.9357L121.442 73.7978Z" stroke="black" stroke-width="3"/>
<path d="M110.522 53.6668C112.882 52.3699 118.922 52.3856 114.772 57.1582C109.076 63.7088 103.052 66.6017 102.932 66.8436L109.57 54.8255L110.522 53.6668Z" stroke="black" stroke-width="3"/>
<path d="M94.3612 47.4504C95.4211 44.9752 100.189 41.2668 99.8596 47.5828C99.4079 56.2518 96.4449 62.2413 96.4993 62.5058L94.3251 48.9495L94.3612 47.4504Z" stroke="black" stroke-width="3"/>
<path d="M78.9538 88.3659C78.3629 90.9928 80.0546 96.7911 83.4877 91.4794C88.1998 84.189 89.307 77.5989 89.506 77.4165L79.8028 87.1297L78.9538 88.3659Z" stroke="black" stroke-width="3"/>
<path d="M110.522 87.6613C112.882 88.9582 118.922 88.9425 114.772 84.1699C109.076 77.6193 103.052 74.7264 102.932 74.4845L109.57 86.5026L110.522 87.6613Z" stroke="black" stroke-width="3"/>
<path d="M94.3612 93.8778C95.4211 96.353 100.189 100.061 99.8596 93.7453C99.4079 85.0764 96.4449 79.0868 96.4993 78.8223L94.3251 92.3786L94.3612 93.8778Z" stroke="black" stroke-width="3"/>
<circle cx="97" cy="72" r="38.5" stroke="black" stroke-width="3"/>
<path d="M129.5 71.5C129.5 89.7461 114.929 104.5 97 104.5C79.0713 104.5 64.5 89.7461 64.5 71.5C64.5 53.2539 79.0713 38.5 97 38.5C114.929 38.5 129.5 53.2539 129.5 71.5Z" stroke="black" stroke-width="3"/>
<mask id="path-12-inside-1" fill="white">
<ellipse cx="99.481" cy="69.0698" rx="2.7502" ry="1.17866" transform="rotate(-39.8999 99.481 69.0698)"/>
</mask>
<path d="M99.7824 68.8178C99.3755 68.3311 99.3521 67.8198 99.3701 67.6022C99.3869 67.3988 99.4418 67.3232 99.4053 67.3952C99.3364 67.5309 99.1228 67.8329 98.725 68.1656L101.749 71.7825C102.517 71.1408 103.189 70.3584 103.61 69.5284C103.818 69.1174 104.019 68.5887 104.069 67.9904C104.119 67.3779 104.015 66.53 103.399 65.7936L99.7824 68.8178ZM98.725 68.1656C98.3271 68.4982 97.9921 68.655 97.8463 68.6987C97.769 68.7219 97.8531 68.6812 98.0563 68.7007C98.2736 68.7215 98.7727 68.8351 99.1796 69.3218L95.5627 72.346C96.1784 73.0824 96.9944 73.3351 97.6062 73.3938C98.2039 73.4511 98.7598 73.3469 99.2012 73.2145C100.093 72.947 100.982 72.4241 101.749 71.7825L98.725 68.1656ZM99.1796 69.3218C99.5866 69.8085 99.61 70.3198 99.592 70.5374C99.5752 70.7408 99.5202 70.8164 99.5567 70.7444C99.6256 70.6087 99.8392 70.3067 100.237 69.974L97.2129 66.3571C96.4455 66.9988 95.7734 67.7812 95.3523 68.6112C95.1438 69.0222 94.9428 69.5509 94.8934 70.1492C94.8428 70.7617 94.947 71.6096 95.5627 72.346L99.1796 69.3218ZM100.237 69.974C100.635 69.6414 100.97 69.4846 101.116 69.4409C101.193 69.4177 101.109 69.4584 100.906 69.4389C100.688 69.4181 100.189 69.3045 99.7824 68.8178L103.399 65.7936C102.784 65.0572 101.968 64.8045 101.356 64.7458C100.758 64.6885 100.202 64.7927 99.7609 64.9251C98.8694 65.1926 97.9803 65.7155 97.2129 66.3571L100.237 69.974Z" fill="black" mask="url(#path-12-inside-1)"/>
<mask id="path-14-inside-2" fill="white">
<ellipse cx="94.5316" cy="73.0073" rx="2.7502" ry="1.17866" transform="rotate(-39.8999 94.5316 73.0073)"/>
</mask>
<path d="M94.833 72.7553C94.426 72.2686 94.4026 71.7573 94.4206 71.5397C94.4374 71.3363 94.4923 71.2607 94.4558 71.3327C94.387 71.4684 94.1733 71.7704 93.7755 72.1031L96.7997 75.72C97.5671 75.0783 98.2392 74.2959 98.6603 73.4659C98.8688 73.0549 99.0698 72.5262 99.1192 71.9279C99.1698 71.3154 99.0656 70.4675 98.4499 69.7311L94.833 72.7553ZM93.7755 72.1031C93.3777 72.4357 93.0426 72.5925 92.8968 72.6362C92.8195 72.6594 92.9036 72.6187 93.1068 72.6382C93.3242 72.659 93.8232 72.7726 94.2302 73.2593L90.6132 76.2835C91.229 77.0199 92.045 77.2726 92.6568 77.3313C93.2544 77.3886 93.8104 77.2844 94.2517 77.152C95.1432 76.8845 96.0323 76.3616 96.7997 75.72L93.7755 72.1031ZM94.2302 73.2593C94.6371 73.746 94.6605 74.2573 94.6425 74.4749C94.6257 74.6783 94.5708 74.7539 94.6073 74.6819C94.6761 74.5462 94.8898 74.2442 95.2876 73.9115L92.2634 70.2946C91.496 70.9363 90.8239 71.7187 90.4028 72.5487C90.1943 72.9597 89.9933 73.4884 89.9439 74.0867C89.8933 74.6992 89.9975 75.5471 90.6132 76.2835L94.2302 73.2593ZM95.2876 73.9115C95.6854 73.5789 96.0205 73.4221 96.1663 73.3784C96.2436 73.3552 96.1595 73.3959 95.9563 73.3764C95.739 73.3556 95.2399 73.242 94.833 72.7553L98.4499 69.7311C97.8342 68.9947 97.0181 68.742 96.4063 68.6833C95.8087 68.626 95.2528 68.7302 94.8114 68.8626C93.9199 69.1301 93.0308 69.653 92.2634 70.2946L95.2876 73.9115Z" fill="black" mask="url(#path-14-inside-2)"/>
<mask id="path-16-inside-3" fill="white">
<ellipse cx="95.0855" cy="68.4881" rx="2.7502" ry="1.17866" transform="rotate(-130.319 95.0855 68.4881)"/>
</mask>
<path d="M94.8313 68.1886C94.3475 68.5991 93.8365 68.6262 93.6187 68.6098C93.4152 68.5945 93.3392 68.5401 93.4115 68.5761C93.5477 68.644 93.8513 68.8554 94.1868 69.2508L97.7815 66.2002C97.1342 65.4375 96.3469 64.7712 95.5138 64.3561C95.1014 64.1507 94.5712 63.9535 93.9725 63.9085C93.3596 63.8624 92.5126 63.9728 91.7807 64.5939L94.8313 68.1886ZM94.1868 69.2508C94.5223 69.6461 94.6816 69.9801 94.7264 70.1255C94.7501 70.2026 94.7088 70.1189 94.7268 69.9155C94.7461 69.698 94.856 69.1982 95.3397 68.7877L98.3903 72.3823C99.1221 71.7613 99.3689 70.9434 99.4231 70.3312C99.476 69.7332 99.3677 69.178 99.2321 68.7376C98.9581 67.8481 98.4287 66.9629 97.7815 66.2002L94.1868 69.2508ZM95.3397 68.7877C95.8234 68.3772 96.3345 68.35 96.5522 68.3664C96.7558 68.3817 96.8317 68.4361 96.7595 68.4001C96.6232 68.3323 96.3197 68.1209 95.9841 67.7255L92.3895 70.7761C93.0367 71.5388 93.8241 72.2051 94.6571 72.6201C95.0696 72.8256 95.5998 73.0227 96.1984 73.0678C96.8113 73.1139 97.6584 73.0034 98.3903 72.3823L95.3397 68.7877ZM95.9841 67.7255C95.6486 67.3301 95.4894 66.9962 95.4446 66.8507C95.4208 66.7736 95.4621 66.8574 95.4441 67.0607C95.4249 67.2782 95.315 67.7781 94.8313 68.1886L91.7807 64.5939C91.0488 65.215 90.8021 66.0328 90.7479 66.645C90.6949 67.2431 90.8032 67.7982 90.9389 68.2386C91.2129 69.1281 91.7422 70.0134 92.3895 70.7761L95.9841 67.7255Z" fill="black" mask="url(#path-16-inside-3)"/>
<mask id="path-18-inside-4" fill="white">
<ellipse rx="2.7502" ry="1.17866" transform="matrix(0.635815 0.771841 0.771841 -0.635815 98.9923 73.4475)"/>
</mask>
<path d="M99.2421 73.7508C98.7525 74.1541 98.6352 74.6523 98.6128 74.8695C98.5918 75.0726 98.6319 75.1569 98.6093 75.0795C98.5666 74.9334 98.4123 74.5972 98.0826 74.1969L101.722 71.1993C102.358 71.9714 102.874 72.8643 103.135 73.7577C103.264 74.2 103.364 74.7567 103.302 75.3539C103.239 75.9653 102.981 76.7794 102.24 77.3897L99.2421 73.7508ZM98.0826 74.1969C97.7529 73.7967 97.4525 73.5808 97.3172 73.511C97.2455 73.474 97.3207 73.5295 97.524 73.5477C97.7414 73.5673 98.2529 73.5477 98.7425 73.1443L95.7449 69.5053C96.4858 68.895 97.3344 68.797 97.9465 68.8521C98.5445 68.9059 99.0717 69.1108 99.4811 69.3223C100.308 69.7494 101.086 70.4272 101.722 71.1993L98.0826 74.1969ZM98.7425 73.1443C99.2322 72.7409 99.3494 72.2427 99.3719 72.0255C99.3928 71.8225 99.3528 71.7381 99.3754 71.8155C99.418 71.9617 99.5724 72.2979 99.9021 72.6981L96.2631 75.6958C95.6271 74.9237 95.1108 74.0307 94.8498 73.1374C94.7206 72.695 94.6205 72.1383 94.6822 71.5411C94.7453 70.9298 95.004 70.1157 95.7449 69.5053L98.7425 73.1443ZM99.9021 72.6981C100.232 73.0984 100.532 73.3142 100.667 73.3841C100.739 73.4211 100.664 73.3656 100.461 73.3473C100.243 73.3277 99.7318 73.3474 99.2421 73.7508L102.24 77.3897C101.499 78 100.65 78.098 100.038 78.043C99.4402 77.9892 98.913 77.7843 98.5036 77.5728C97.6767 77.1456 96.8992 76.4678 96.2631 75.6958L99.9021 72.6981Z" fill="black" mask="url(#path-18-inside-4)"/>
<path d="M72 64.9993C71.6667 63.166 72.7 57.7 75.5 58.5M86 49.9986C86.3334 48.9986 87.6 47.2986 90 48.4986M104.5 47.5C105.833 47.1657 108.3 47.1976 107.5 49.9986M118.5 58.5C119.833 59.3333 122.4 61.5 122 63.5M119.5 82C121.167 81.8333 124 80.8 122 78M109 91.5C108.5 93.3333 106.9 96.7 104.5 95.5M91 96.5C92.3333 97 86.4 97.3 86 94.5M72 79C71.6667 81.1667 71.9 84.5 75.5 84.5" stroke="black"/>
</svg>
