<svg width="430" height="60" viewBox="0 0 992 150" fill="none" xmlns="http://www.w3.org/2000/svg">
<path d="M151.277 66.9297C151.277 68.1797 151.043 69.1562 150.574 69.8594C150.145 70.5234 149.559 71.0312 148.816 71.3828C148.074 71.7344 147.234 71.9492 146.297 72.0273C145.398 72.1055 144.48 72.1641 143.543 72.2031C145.652 74.3906 147.332 76.9102 148.582 79.7617C149.832 82.6133 150.457 85.5625 150.457 88.6094C150.457 91.6172 149.949 94.5664 148.934 97.457C147.918 100.309 146.473 102.848 144.598 105.074C142.723 107.301 140.477 109.098 137.859 110.465C135.242 111.832 132.332 112.516 129.129 112.516C126.59 112.516 124.305 112.027 122.273 111.051C120.242 110.074 118.426 108.746 116.824 107.066C115.223 105.348 113.816 103.375 112.605 101.148C111.395 98.8828 110.359 96.4805 109.5 93.9414C108.641 91.3633 107.918 88.707 107.332 85.9727C106.785 83.2383 106.336 80.5625 105.984 77.9453C105.672 75.3281 105.438 72.8477 105.281 70.5039C105.164 68.1211 105.105 65.9922 105.105 64.1172C105.105 61.9297 105.203 59.5859 105.398 57.0859C105.633 54.5859 106.004 52.0664 106.512 49.5273C107.02 46.9883 107.703 44.5078 108.562 42.0859C109.422 39.6641 110.516 37.4375 111.844 35.4062C113.172 33.3359 114.734 31.5391 116.531 30.0156C118.367 28.4531 120.496 27.2812 122.918 26.5C123.816 26.1875 124.715 25.9531 125.613 25.7969C126.512 25.6406 127.41 25.5625 128.309 25.5625C132.215 25.5625 135.457 26.6172 138.035 28.7266C140.652 30.8359 142.605 33.6875 143.895 37.2812C144.129 37.8281 144.324 38.3945 144.48 38.9805C144.637 39.5273 144.715 40.0938 144.715 40.6797C144.715 41.3828 144.461 41.832 143.953 42.0273C143.445 42.2227 142.918 42.3203 142.371 42.3203C140.965 42.3203 139.832 42.0664 138.973 41.5586C138.113 41.0508 137.391 40.4258 136.805 39.6836C136.219 38.9414 135.691 38.1211 135.223 37.2227C134.793 36.3242 134.305 35.5039 133.758 34.7617C133.211 34.0195 132.527 33.3945 131.707 32.8867C130.887 32.3789 129.793 32.125 128.426 32.125C126.473 32.125 124.754 32.6719 123.27 33.7656C121.785 34.8594 120.496 36.3047 119.402 38.1016C118.309 39.8594 117.391 41.8711 116.648 44.1367C115.906 46.3633 115.32 48.6094 114.891 50.875C114.461 53.1016 114.148 55.25 113.953 57.3203C113.758 59.3906 113.66 61.1484 113.66 62.5938C113.66 64.1172 113.758 66.2266 113.953 68.9219C114.148 71.6172 114.461 74.5469 114.891 77.7109C115.359 80.875 115.965 84.0977 116.707 87.3789C117.488 90.6211 118.445 93.5703 119.578 96.2266C120.75 98.8828 122.117 101.051 123.68 102.73C125.281 104.41 127.137 105.25 129.246 105.25C131.082 105.25 132.742 104.723 134.227 103.668C135.711 102.574 136.961 101.227 137.977 99.625C139.031 97.9844 139.832 96.2461 140.379 94.4102C140.926 92.5352 141.199 90.7969 141.199 89.1953C141.199 87.6719 140.984 86.168 140.555 84.6836C140.125 83.1602 139.52 81.7344 138.738 80.4062C137.957 79.0391 137.02 77.7891 135.926 76.6562C134.832 75.4844 133.621 74.5078 132.293 73.7266C131.824 73.4141 131.297 73.1406 130.711 72.9062C130.164 72.6328 129.598 72.3984 129.012 72.2031C128.699 72.1641 128.094 72.125 127.195 72.0859C126.297 72.0078 125.379 71.9102 124.441 71.793C123.504 71.6758 122.664 71.5 121.922 71.2656C121.18 70.9922 120.809 70.6016 120.809 70.0938C120.809 69.3906 120.926 68.668 121.16 67.9258C121.395 67.1836 121.727 66.5195 122.156 65.9336C122.625 65.3477 123.152 64.8594 123.738 64.4688C124.363 64.0781 125.066 63.8828 125.848 63.8828C126.98 63.8828 128.191 64.0586 129.48 64.4102C130.809 64.7227 131.98 65.0938 132.996 65.5234C134.949 65.4062 136.883 65.2891 138.797 65.1719C140.711 65.0156 142.605 64.8203 144.48 64.5859C145.145 64.5078 145.789 64.4102 146.414 64.293C147.078 64.1758 147.762 64.1172 148.465 64.1172C149.402 64.1172 150.105 64.332 150.574 64.7617C151.043 65.1914 151.277 65.9141 151.277 66.9297ZM160.477 109.938C159.891 109.938 159.246 109.859 158.543 109.703C157.879 109.547 157.234 109.293 156.609 108.941C156.023 108.59 155.516 108.16 155.086 107.652C154.695 107.105 154.5 106.461 154.5 105.719C154.5 104.625 154.539 103.551 154.617 102.496C154.734 101.402 154.852 100.328 154.969 99.2734V99.332L155.32 95.4062C155.438 94 155.535 92.457 155.613 90.7773C155.691 89.0977 155.75 87.3984 155.789 85.6797C155.867 83.9219 155.926 82.2031 155.965 80.5234C156.004 78.8438 156.023 77.3008 156.023 75.8945C156.023 75.0742 156.004 74.2539 155.965 73.4336C155.965 72.5742 155.965 71.7148 155.965 70.8555C155.926 70.1133 155.906 69.293 155.906 68.3945C155.906 67.457 155.906 66.5977 155.906 65.8164C155.906 64.9961 156.004 64.332 156.199 63.8242C156.434 63.2773 157.059 63.0039 158.074 63.0039C158.973 63.0039 159.91 63.2383 160.887 63.707C161.902 64.1758 162.605 64.8398 162.996 65.6992H162.938C163.133 66.1289 163.27 66.832 163.348 67.8086C163.465 68.7461 163.543 69.5859 163.582 70.3281C164.246 69.3125 164.988 68.2383 165.809 67.1055C166.668 65.9727 167.586 64.9375 168.562 64C169.539 63.0234 170.574 62.2227 171.668 61.5977C172.762 60.9727 173.934 60.6602 175.184 60.6602C176.824 60.6602 178.074 61.0703 178.934 61.8906C179.793 62.7109 180.418 63.7461 180.809 64.9961C181.199 66.207 181.414 67.5156 181.453 68.9219C181.492 70.2891 181.512 71.5391 181.512 72.6719V73.1406C181.512 73.6094 181.492 74.0781 181.453 74.5469C181.453 74.9766 181.375 75.3867 181.219 75.7773C181.102 76.1289 180.867 76.4219 180.516 76.6562C180.203 76.8906 179.754 77.0078 179.168 77.0078C178.543 77.0078 177.879 76.9297 177.176 76.7734C176.473 76.5781 175.809 76.3047 175.184 75.9531C174.598 75.6016 174.09 75.1719 173.66 74.6641C173.23 74.1172 172.996 73.4922 172.957 72.7891C172.957 72.4766 172.957 72.1641 172.957 71.8516C172.957 71.5391 172.977 71.2266 173.016 70.9141C173.016 70.7188 173.016 70.4844 173.016 70.2109C173.055 69.8984 173.074 69.6055 173.074 69.332C171.824 70.582 170.711 72.125 169.734 73.9609C168.797 75.7969 167.938 77.75 167.156 79.8203C166.414 81.8906 165.77 83.9805 165.223 86.0898C164.676 88.1602 164.207 90.0352 163.816 91.7148V91.8906C163.699 93.1016 163.621 94.293 163.582 95.4648C163.543 96.6367 163.504 97.8477 163.465 99.0977C163.426 100.504 163.367 101.93 163.289 103.375C163.25 104.82 163.152 106.227 162.996 107.594C162.918 108.336 162.684 108.902 162.293 109.293C161.941 109.723 161.336 109.938 160.477 109.938ZM207.352 108.238C207.352 109.02 207.156 109.547 206.766 109.82C206.375 110.133 205.828 110.289 205.125 110.289C203.289 110.289 201.961 109.801 201.141 108.824C200.359 107.848 199.773 106.559 199.383 104.957C199.266 104.41 199.148 103.863 199.031 103.316C198.914 102.73 198.816 102.164 198.738 101.617C198.66 101.109 198.582 100.758 198.504 100.562C198.426 100.367 198.348 99.9961 198.27 99.4492C197.801 100.582 197.215 101.773 196.512 103.023C195.848 104.234 195.066 105.367 194.168 106.422C193.27 107.438 192.254 108.277 191.121 108.941C190.027 109.605 188.816 109.938 187.488 109.938C186.082 109.938 184.91 109.605 183.973 108.941C183.035 108.238 182.293 107.379 181.746 106.363C181.238 105.309 180.867 104.156 180.633 102.906C180.438 101.656 180.34 100.465 180.34 99.332C180.34 96.6758 180.594 93.8047 181.102 90.7188C181.648 87.5938 182.391 84.4883 183.328 81.4023C184.266 78.2773 185.359 75.2891 186.609 72.4375C187.859 69.5469 189.227 67.0273 190.711 64.8789V64.9375L191.062 64.4102C191.492 63.8242 191.98 63.1992 192.527 62.5352C193.113 61.832 193.797 61.4805 194.578 61.4805C195.32 61.4805 195.965 61.8125 196.512 62.4766C197.059 63.1016 197.449 63.7656 197.684 64.4688C198.699 64.6641 199.52 64.918 200.145 65.2305C200.77 65.5039 201.258 65.8555 201.609 66.2852C201.961 66.7148 202.195 67.2227 202.312 67.8086C202.43 68.3555 202.488 68.9609 202.488 69.625C202.488 69.8984 202.488 70.1914 202.488 70.5039C202.488 70.8164 202.469 71.1289 202.43 71.4414C202.391 71.7539 202.371 72.125 202.371 72.5547C202.371 72.9844 202.371 73.375 202.371 73.7266C202.371 74.1172 202.43 74.625 202.547 75.25C202.703 75.875 202.859 76.5195 203.016 77.1836L203.426 79.3516C203.621 80.4844 203.777 81.7734 203.895 83.2188C204.051 84.6641 204.227 86.1094 204.422 87.5547C204.578 89.0391 204.734 90.4844 204.891 91.8906C205.047 93.2578 205.203 94.5273 205.359 95.6992L206.766 104.371L206.941 105.367C207.02 105.875 207.098 106.344 207.176 106.773C207.293 107.203 207.352 107.691 207.352 108.238ZM193.934 74.5469C193.934 74.4688 193.914 74.3516 193.875 74.1953C193.836 74 193.797 73.8047 193.758 73.6094C192.859 75.5234 192.059 77.6133 191.355 79.8789C190.691 82.1055 190.125 84.3906 189.656 86.7344C189.227 89.0391 188.895 91.3633 188.66 93.707C188.465 96.0117 188.367 98.1992 188.367 100.27C188.367 100.465 188.367 100.641 188.367 100.797C188.367 100.953 188.387 101.109 188.426 101.266V101.324C189.363 99.8789 190.164 97.9844 190.828 95.6406C191.531 93.2578 192.117 90.7773 192.586 88.1992C193.055 85.582 193.387 83.0625 193.582 80.6406C193.816 78.1797 193.934 76.1484 193.934 74.5469ZM219.246 93.7656C219.246 95.6406 219.227 97.3594 219.188 98.9219C219.188 100.484 219.227 102.203 219.305 104.078L220.359 103.316L221.004 102.906C222.918 101.383 224.578 99.5273 225.984 97.3398C227.43 95.1133 228.621 92.75 229.559 90.25C230.496 87.75 231.18 85.1914 231.609 82.5742C232.078 79.918 232.312 77.3984 232.312 75.0156C232.312 74.5469 232.293 73.9023 232.254 73.082C232.254 72.2227 232.176 71.3828 232.02 70.5625C231.863 69.7422 231.629 69.0391 231.316 68.4531C231.004 67.8281 230.555 67.5156 229.969 67.5156C229.031 67.5156 228.074 68.082 227.098 69.2148C226.121 70.3477 225.203 71.6953 224.344 73.2578C223.523 74.8203 222.781 76.4023 222.117 78.0039C221.453 79.5664 220.965 80.7969 220.652 81.6953C220.652 81.7344 220.633 81.7539 220.594 81.7539C220.594 81.7539 220.594 81.7734 220.594 81.8125V81.8711C220.359 82.418 220.105 83.0039 219.832 83.6289C219.598 84.2539 219.441 84.8398 219.363 85.3867C219.285 85.9336 219.227 86.5586 219.188 87.2617C219.148 87.9258 219.129 88.6289 219.129 89.3711C219.129 89.7617 219.129 90.1523 219.129 90.543C219.168 90.8945 219.188 91.2266 219.188 91.5391C219.188 91.9688 219.188 92.3789 219.188 92.7695C219.227 93.1211 219.246 93.4531 219.246 93.7656ZM222.469 147.32C222.469 148.18 222.234 148.766 221.766 149.078C221.297 149.391 220.672 149.547 219.891 149.547C218.953 149.547 217.918 149.391 216.785 149.078C215.652 148.805 214.754 148.277 214.09 147.496C213.895 147.223 213.699 146.422 213.504 145.094C213.348 143.766 213.191 142.203 213.035 140.406C212.879 138.648 212.742 136.812 212.625 134.898C212.508 133.023 212.391 131.363 212.273 129.918L212.039 126.812C211.57 118.453 211.336 110.094 211.336 101.734C211.336 96.8516 211.414 92.0664 211.57 87.3789C211.766 82.6523 211.961 77.8672 212.156 73.0234L212.391 66.8711C212.391 66.2461 212.391 65.6406 212.391 65.0547C212.43 64.4297 212.508 63.8242 212.625 63.2383C212.82 62.7305 213.055 62.3398 213.328 62.0664C213.641 61.7539 214.129 61.5977 214.793 61.5977C216.473 61.5977 217.703 62.1055 218.484 63.1211C219.266 64.0977 219.715 65.3086 219.832 66.7539C221.082 65.0352 222.566 63.668 224.285 62.6523C226.043 61.6367 228.055 61.1289 230.32 61.1289C232.234 61.1289 233.836 61.5586 235.125 62.418C236.453 63.2773 237.508 64.3906 238.289 65.7578C239.07 67.0859 239.617 68.5898 239.93 70.2695C240.281 71.9102 240.457 73.5312 240.457 75.1328C240.457 78.2188 240.184 81.3047 239.637 84.3906C239.09 87.4375 238.23 90.4062 237.059 93.2969C235.926 96.1484 234.48 98.8633 232.723 101.441C230.965 103.98 228.895 106.246 226.512 108.238C226.199 108.512 225.828 108.805 225.398 109.117C224.969 109.43 224.52 109.723 224.051 109.996C223.582 110.27 223.094 110.504 222.586 110.699C222.117 110.895 221.688 110.992 221.297 110.992C220.867 110.992 220.496 110.895 220.184 110.699C219.871 110.504 219.598 110.27 219.363 109.996C219.441 112.691 219.539 115.484 219.656 118.375C219.812 121.266 219.988 124.156 220.184 127.047C220.379 129.977 220.613 132.867 220.887 135.719C221.199 138.57 221.57 141.324 222 143.98C222.117 144.488 222.215 145.016 222.293 145.562C222.41 146.148 222.469 146.734 222.469 147.32ZM266.648 98.2773C266.648 99.4492 266.316 100.66 265.652 101.91C265.027 103.16 264.207 104.312 263.191 105.367C262.176 106.383 261.004 107.223 259.676 107.887C258.387 108.551 257.098 108.883 255.809 108.883C253.973 108.883 252.391 108.531 251.062 107.828C249.734 107.086 248.582 106.109 247.605 104.898C246.629 103.648 245.828 102.242 245.203 100.68C244.617 99.1172 244.148 97.5156 243.797 95.875C243.445 94.1953 243.191 92.5352 243.035 90.8945C242.918 89.2148 242.859 87.6914 242.859 86.3242C242.859 85.1523 242.918 83.7656 243.035 82.1641C243.191 80.5625 243.426 78.9023 243.738 77.1836C244.09 75.4648 244.559 73.7656 245.145 72.0859C245.73 70.4062 246.453 68.9023 247.312 67.5742C248.211 66.2461 249.266 65.1719 250.477 64.3516C251.727 63.5312 253.152 63.1211 254.754 63.1211C256.004 63.1211 257.117 63.375 258.094 63.8828C259.109 64.3906 259.949 65.0742 260.613 65.9336C261.316 66.7539 261.844 67.7109 262.195 68.8047C262.586 69.8984 262.781 71.0312 262.781 72.2031C262.781 73.7266 262.43 75.3867 261.727 77.1836C261.023 78.9805 260.105 80.7188 258.973 82.3984C257.879 84.0781 256.629 85.6016 255.223 86.9688C253.855 88.2969 252.488 89.3125 251.121 90.0156C251.199 90.7188 251.355 91.7539 251.59 93.1211C251.824 94.4492 252.137 95.7773 252.527 97.1055C252.957 98.4336 253.445 99.5859 253.992 100.562C254.578 101.539 255.262 102.027 256.043 102.027C256.434 102.027 256.766 101.91 257.039 101.676C257.352 101.441 257.625 101.129 257.859 100.738C258.094 100.348 258.289 99.918 258.445 99.4492C258.641 98.9805 258.816 98.5312 258.973 98.1016L259.324 97.2812C259.402 97.1641 259.441 97.0859 259.441 97.0469C259.48 97.0078 259.52 96.9492 259.559 96.8711C259.832 96.3633 260.086 95.8945 260.32 95.4648C260.594 95.0352 260.965 94.6641 261.434 94.3516H261.375C261.531 94.1953 261.688 94.1172 261.844 94.1172C262.039 94.0781 262.215 94.0586 262.371 94.0586C262.801 94.0586 263.27 94.1953 263.777 94.4688C264.285 94.7422 264.754 95.0938 265.184 95.5234C265.613 95.9141 265.965 96.3633 266.238 96.8711C266.512 97.3398 266.648 97.8086 266.648 98.2773ZM255.047 72.4375C255.047 72.0469 255.027 71.6367 254.988 71.207C254.949 70.7773 254.852 70.4062 254.695 70.0938C254.148 70.7578 253.66 71.5586 253.23 72.4961C252.84 73.3945 252.508 74.3516 252.234 75.3672C251.961 76.3438 251.727 77.3398 251.531 78.3555C251.375 79.3711 251.258 80.3086 251.18 81.168C252.195 79.957 253.094 78.5898 253.875 77.0664C254.656 75.5039 255.047 73.9609 255.047 72.4375ZM292.664 36.168C292.664 36.5977 292.469 36.9688 292.078 37.2812C291.727 37.5547 291.297 37.7891 290.789 37.9844C290.281 38.1406 289.773 38.2578 289.266 38.3359C288.758 38.4141 288.367 38.4531 288.094 38.4531C287.195 38.4531 286.355 38.3164 285.574 38.043C284.793 37.7305 283.953 37.5547 283.055 37.5156C281.766 37.8672 280.613 38.6484 279.598 39.8594C278.582 41.0703 277.781 42.8281 277.195 45.1328C276.609 47.4375 276.277 50.3281 276.199 53.8047C276.121 57.2812 276.375 61.4805 276.961 66.4023C279.422 65.8945 281.707 65.4648 283.816 65.1133C285.965 64.7227 287.625 64.5273 288.797 64.5273C289.734 64.5273 290.379 64.7812 290.73 65.2891C291.082 65.7969 291.258 66.4414 291.258 67.2227C291.258 68.0039 291.18 68.7266 291.023 69.3906C290.867 70.0547 290.457 70.6016 289.793 71.0312L277.547 72.9062C277.742 74.5469 277.898 76.207 278.016 77.8867C278.172 79.5273 278.328 81.1484 278.484 82.75C279.109 87.8281 279.637 91.9883 280.066 95.2305C280.535 98.4727 280.906 101.07 281.18 103.023C281.492 104.938 281.727 106.324 281.883 107.184C282.078 108.004 282.215 108.57 282.293 108.883C282.371 109.156 282.41 109.273 282.41 109.234C282.449 109.195 282.469 109.234 282.469 109.352C282.469 110.172 282.215 110.738 281.707 111.051C281.199 111.402 280.594 111.578 279.891 111.578C279.344 111.578 278.758 111.52 278.133 111.402C277.547 111.324 276.961 111.188 276.375 110.992C275.789 110.797 275.262 110.523 274.793 110.172C274.324 109.82 273.992 109.391 273.797 108.883C273.484 106.227 273.113 103.688 272.684 101.266C272.254 98.8438 271.883 96.3242 271.57 93.707C271.258 90.6211 270.906 87.3398 270.516 83.8633C270.164 80.3867 269.871 77.0664 269.637 73.9023C269.48 73.9414 269.324 73.9609 269.168 73.9609C269.012 73.9219 268.836 73.9023 268.641 73.9023C268.016 73.9023 267.488 73.7656 267.059 73.4922C266.668 73.1797 266.473 72.6328 266.473 71.8516C266.473 70.9531 266.688 70.1328 267.117 69.3906C267.586 68.6484 268.27 68.1602 269.168 67.9258C269.051 65.7773 268.914 63.3945 268.758 60.7773C268.602 58.1602 268.543 55.5039 268.582 52.8086C268.621 50.0742 268.836 47.4375 269.227 44.8984C269.656 42.3203 270.398 40.0547 271.453 38.1016C272.508 36.1094 273.953 34.5078 275.789 33.2969C277.625 32.0859 279.988 31.4805 282.879 31.4805C283.465 31.4805 284.285 31.5781 285.34 31.7734C286.434 31.9687 287.527 32.2813 288.621 32.7109C289.715 33.1016 290.652 33.5898 291.434 34.1758C292.254 34.7617 292.664 35.4258 292.664 36.168ZM298.406 109.938C297.82 109.938 297.176 109.859 296.473 109.703C295.809 109.547 295.164 109.293 294.539 108.941C293.953 108.59 293.445 108.16 293.016 107.652C292.625 107.105 292.43 106.461 292.43 105.719C292.43 104.625 292.469 103.551 292.547 102.496C292.664 101.402 292.781 100.328 292.898 99.2734V99.332L293.25 95.4062C293.367 94 293.465 92.457 293.543 90.7773C293.621 89.0977 293.68 87.3984 293.719 85.6797C293.797 83.9219 293.855 82.2031 293.895 80.5234C293.934 78.8438 293.953 77.3008 293.953 75.8945C293.953 75.0742 293.934 74.2539 293.895 73.4336C293.895 72.5742 293.895 71.7148 293.895 70.8555C293.855 70.1133 293.836 69.293 293.836 68.3945C293.836 67.457 293.836 66.5977 293.836 65.8164C293.836 64.9961 293.934 64.332 294.129 63.8242C294.363 63.2773 294.988 63.0039 296.004 63.0039C296.902 63.0039 297.84 63.2383 298.816 63.707C299.832 64.1758 300.535 64.8398 300.926 65.6992H300.867C301.062 66.1289 301.199 66.832 301.277 67.8086C301.395 68.7461 301.473 69.5859 301.512 70.3281C302.176 69.3125 302.918 68.2383 303.738 67.1055C304.598 65.9727 305.516 64.9375 306.492 64C307.469 63.0234 308.504 62.2227 309.598 61.5977C310.691 60.9727 311.863 60.6602 313.113 60.6602C314.754 60.6602 316.004 61.0703 316.863 61.8906C317.723 62.7109 318.348 63.7461 318.738 64.9961C319.129 66.207 319.344 67.5156 319.383 68.9219C319.422 70.2891 319.441 71.5391 319.441 72.6719V73.1406C319.441 73.6094 319.422 74.0781 319.383 74.5469C319.383 74.9766 319.305 75.3867 319.148 75.7773C319.031 76.1289 318.797 76.4219 318.445 76.6562C318.133 76.8906 317.684 77.0078 317.098 77.0078C316.473 77.0078 315.809 76.9297 315.105 76.7734C314.402 76.5781 313.738 76.3047 313.113 75.9531C312.527 75.6016 312.02 75.1719 311.59 74.6641C311.16 74.1172 310.926 73.4922 310.887 72.7891C310.887 72.4766 310.887 72.1641 310.887 71.8516C310.887 71.5391 310.906 71.2266 310.945 70.9141C310.945 70.7188 310.945 70.4844 310.945 70.2109C310.984 69.8984 311.004 69.6055 311.004 69.332C309.754 70.582 308.641 72.125 307.664 73.9609C306.727 75.7969 305.867 77.75 305.086 79.8203C304.344 81.8906 303.699 83.9805 303.152 86.0898C302.605 88.1602 302.137 90.0352 301.746 91.7148V91.8906C301.629 93.1016 301.551 94.293 301.512 95.4648C301.473 96.6367 301.434 97.8477 301.395 99.0977C301.355 100.504 301.297 101.93 301.219 103.375C301.18 104.82 301.082 106.227 300.926 107.594C300.848 108.336 300.613 108.902 300.223 109.293C299.871 109.723 299.266 109.938 298.406 109.938ZM346.57 70.3281C346.57 70.7188 346.531 71.1289 346.453 71.5586C346.375 71.9883 346.297 72.3789 346.219 72.7305C346.141 73.1602 346.062 73.5703 345.984 73.9609C345.906 74.3125 345.867 74.6641 345.867 75.0156C345.867 78.6484 345.926 82.3008 346.043 85.9727C346.199 89.6055 346.59 93.2578 347.215 96.9297C347.41 98.3359 347.645 99.7031 347.918 101.031C348.191 102.359 348.504 103.707 348.855 105.074L348.973 105.426V105.309C349.09 105.582 349.188 105.875 349.266 106.188C349.383 106.461 349.441 106.754 349.441 107.066C349.441 107.496 349.324 107.848 349.09 108.121C348.895 108.395 348.641 108.609 348.328 108.766C348.016 108.922 347.664 109.02 347.273 109.059C346.922 109.098 346.59 109.117 346.277 109.117C344.988 109.117 343.953 108.98 343.172 108.707C342.43 108.395 341.824 107.984 341.355 107.477C340.887 106.93 340.535 106.285 340.301 105.543C340.105 104.801 339.93 103.98 339.773 103.082L339.598 102.027C339.441 101.48 339.344 100.895 339.305 100.27C339.266 99.957 339.227 99.8203 339.188 99.8594C339.188 99.8594 339.168 99.7031 339.129 99.3906C338.582 100.367 337.938 101.422 337.195 102.555C336.492 103.648 335.672 104.684 334.734 105.66C333.836 106.598 332.859 107.398 331.805 108.062C330.75 108.688 329.617 109 328.406 109C326.727 109 325.418 108.492 324.48 107.477C323.582 106.461 322.918 105.23 322.488 103.785C322.059 102.301 321.805 100.777 321.727 99.2148C321.648 97.6133 321.609 96.2266 321.609 95.0547C321.609 90.6016 321.746 86.1875 322.02 81.8125C322.332 77.4375 322.664 73.043 323.016 68.6289C323.016 68.5117 323.016 68.3555 323.016 68.1602C323.055 67.9648 323.074 67.8086 323.074 67.6914C323.113 67.1445 323.152 66.6367 323.191 66.168C323.23 65.6992 323.328 65.25 323.484 64.8203V64.8789C323.641 64.2539 323.855 63.8047 324.129 63.5312C324.441 63.2578 324.91 63.1211 325.535 63.1211C326.121 63.1211 326.707 63.2383 327.293 63.4727C327.879 63.668 328.406 63.9609 328.875 64.3516C329.344 64.7031 329.715 65.1328 329.988 65.6406C330.301 66.1484 330.457 66.7148 330.457 67.3398C330.457 67.6523 330.457 68.0234 330.457 68.4531C330.457 68.8828 330.438 69.2539 330.398 69.5664C330.398 69.8398 330.379 70.1914 330.34 70.6211C330.34 71.0117 330.34 71.3438 330.34 71.6172C330.027 75.3672 329.793 79.0977 329.637 82.8086C329.48 86.4805 329.402 90.2109 329.402 94C329.402 95.0547 329.402 96.1094 329.402 97.1641C329.441 98.2188 329.559 99.2734 329.754 100.328C331.043 98.6875 332.156 96.5977 333.094 94.0586C334.031 91.4805 334.812 88.7656 335.438 85.9141C336.102 83.0234 336.629 80.1719 337.02 77.3594C337.449 74.5078 337.762 71.9883 337.957 69.8008C337.957 69.6836 337.957 69.5469 337.957 69.3906C337.996 69.2344 338.016 69.0977 338.016 68.9805C338.055 68.5508 338.094 68.1406 338.133 67.75C338.172 67.3594 338.309 66.9883 338.543 66.6367C338.543 66.2852 338.562 65.9141 338.602 65.5234C338.641 65.1328 338.738 64.7812 338.895 64.4688C339.051 64.1172 339.266 63.8438 339.539 63.6484C339.852 63.4531 340.281 63.3555 340.828 63.3555C342.391 63.3555 343.621 63.8438 344.52 64.8203C345.418 65.7578 345.906 66.9688 345.984 68.4531C346.18 68.7656 346.316 69.0781 346.395 69.3906C346.512 69.6641 346.57 69.9766 346.57 70.3281ZM360.75 59.7227C360.75 60.3867 360.594 60.875 360.281 61.1875C360.008 61.4609 359.48 61.5977 358.699 61.5977C358.348 61.5977 357.801 61.5586 357.059 61.4805C356.316 61.3633 355.555 61.207 354.773 61.0117C354.031 60.8164 353.367 60.543 352.781 60.1914C352.234 59.8398 351.961 59.4102 351.961 58.9023C351.961 58.7461 352.02 58.3164 352.137 57.6133C352.254 56.8711 352.391 56.0898 352.547 55.2695C352.742 54.4492 352.898 53.707 353.016 53.043C353.172 52.3789 353.289 52.0078 353.367 51.9297V51.9883C353.562 51.6758 353.797 51.4805 354.07 51.4023C354.344 51.3242 354.617 51.2852 354.891 51.2852C355.242 51.2852 355.691 51.3438 356.238 51.4609C356.824 51.5391 357.391 51.6758 357.938 51.8711C358.523 52.0273 359.051 52.2422 359.52 52.5156C359.988 52.7891 360.281 53.082 360.398 53.3945C360.516 53.707 360.574 54.1367 360.574 54.6836C360.613 55.1914 360.613 55.6602 360.574 56.0898C360.574 56.2461 360.555 56.4414 360.516 56.6758C360.516 56.8711 360.516 57.0273 360.516 57.1445C360.516 57.3398 360.516 57.5352 360.516 57.7305C360.555 57.9258 360.594 58.1211 360.633 58.3164C360.672 58.5117 360.691 58.7266 360.691 58.9609C360.73 59.1953 360.75 59.4492 360.75 59.7227ZM362.918 106.422C362.918 107.32 362.703 107.965 362.273 108.355C361.883 108.707 361.238 108.883 360.34 108.883C359.871 108.883 359.344 108.824 358.758 108.707C358.211 108.59 357.664 108.434 357.117 108.238C356.57 108.004 356.062 107.73 355.594 107.418C355.125 107.105 354.773 106.754 354.539 106.363C354.383 106.129 354.246 105.406 354.129 104.195C354.012 102.984 353.914 101.48 353.836 99.6836C353.797 97.8867 353.738 95.875 353.66 93.6484C353.621 91.4219 353.582 89.1758 353.543 86.9102C353.543 84.6445 353.543 82.4375 353.543 80.2891C353.543 78.1406 353.543 76.2656 353.543 74.6641V70.1523C353.543 69.7617 353.543 69.3711 353.543 68.9805C353.582 68.5898 353.66 68.2578 353.777 67.9844C353.934 67.6719 354.148 67.418 354.422 67.2227C354.734 67.0273 355.164 66.9297 355.711 66.9297C357.43 66.9297 358.68 67.418 359.461 68.3945C360.281 69.332 360.789 70.6016 360.984 72.2031C361.18 74.5859 361.316 76.9688 361.395 79.3516C361.512 81.6953 361.609 84.0781 361.688 86.5C361.766 88.6875 361.824 90.8555 361.863 93.0039C361.941 95.1133 362.078 97.2227 362.273 99.332C362.312 99.7617 362.352 100.172 362.391 100.562C362.43 100.953 362.488 101.344 362.566 101.734C362.645 102.516 362.723 103.297 362.801 104.078C362.879 104.82 362.918 105.602 362.918 106.422ZM380.555 107.535C380.555 107.965 380.457 108.336 380.262 108.648C380.066 108.922 379.812 109.137 379.5 109.293C379.227 109.449 378.914 109.547 378.562 109.586C378.25 109.664 377.938 109.703 377.625 109.703C377.195 109.703 376.688 109.645 376.102 109.527C375.555 109.449 375.008 109.312 374.461 109.117C373.914 108.922 373.406 108.688 372.938 108.414C372.508 108.102 372.176 107.73 371.941 107.301C371.707 106.91 371.492 106.188 371.297 105.133C371.141 104.039 371.004 102.789 370.887 101.383C370.77 99.9375 370.672 98.4141 370.594 96.8125C370.516 95.1719 370.438 93.6094 370.359 92.125C370.32 90.6406 370.281 89.3125 370.242 88.1406C370.242 86.9297 370.242 86.0312 370.242 85.4453C370.242 82.7109 370.281 80.0742 370.359 77.5352C370.477 74.957 370.594 72.3203 370.711 69.625C370.516 69.625 370.32 69.6445 370.125 69.6836C369.93 69.7227 369.734 69.7422 369.539 69.7422C369.031 69.8203 368.504 69.8789 367.957 69.918C367.449 69.957 366.922 69.9766 366.375 69.9766C365.711 69.9766 365.125 69.8594 364.617 69.625C364.109 69.3906 363.855 68.8633 363.855 68.043C363.855 67.0664 364.07 66.2852 364.5 65.6992C364.93 65.1133 365.477 64.6641 366.141 64.3516C366.805 64 367.527 63.7656 368.309 63.6484C369.09 63.4922 369.852 63.375 370.594 63.2969C370.711 63.2969 370.789 63.2969 370.828 63.2969C370.867 63.2578 370.945 63.2383 371.062 63.2383C371.102 62.7695 371.141 62.2031 371.18 61.5391C371.219 60.8359 371.258 60.0742 371.297 59.2539C371.336 57.9648 371.395 56.5977 371.473 55.1523C371.551 53.668 371.629 52.2617 371.707 50.9336C371.785 49.5664 371.883 48.375 372 47.3594C372.117 46.3047 372.234 45.5625 372.352 45.1328C372.547 44.625 372.762 44.2148 372.996 43.9023C373.27 43.5898 373.758 43.4336 374.461 43.4336C376.023 43.4336 377.234 43.9414 378.094 44.957C378.953 45.9727 379.383 47.2227 379.383 48.707C379.383 50.4258 379.324 52.1445 379.207 53.8633C379.129 55.582 379.051 57.3203 378.973 59.0781L378.797 62.0664C379.773 61.9492 380.75 61.7734 381.727 61.5391C382.664 61.3438 383.602 61.168 384.539 61.0117C385.516 60.8555 386.453 60.7773 387.352 60.7773C388.133 60.7773 388.738 60.9922 389.168 61.4219C389.598 61.8125 389.812 62.3984 389.812 63.1797C389.812 64.0391 389.656 64.8789 389.344 65.6992C389.031 66.5195 388.484 67.1445 387.703 67.5742H387.762C387.605 67.6523 387.137 67.7695 386.355 67.9258C385.574 68.043 384.676 68.1602 383.66 68.2773C382.684 68.3945 381.707 68.5117 380.73 68.6289C379.793 68.7461 379.09 68.8242 378.621 68.8633H378.562C378.484 71.0508 378.426 73.2188 378.387 75.3672C378.348 77.4766 378.328 79.625 378.328 81.8125C378.328 84.8203 378.406 88.0234 378.562 91.4219C378.758 94.7812 379.07 97.9844 379.5 101.031L379.969 103.668C380.125 104.332 380.262 104.996 380.379 105.66C380.496 106.285 380.555 106.91 380.555 107.535ZM442.957 102.672C442.957 102.281 443.094 101.988 443.367 101.793C443.641 101.559 443.973 101.402 444.363 101.324C444.793 101.207 445.203 101.148 445.594 101.148C446.023 101.148 446.395 101.148 446.707 101.148C447.098 101.148 447.547 101.168 448.055 101.207C448.602 101.207 449.109 101.285 449.578 101.441C450.047 101.559 450.438 101.773 450.75 102.086C451.102 102.359 451.277 102.75 451.277 103.258C451.277 103.453 451.258 103.883 451.219 104.547C451.219 105.172 451.199 105.855 451.16 106.598C451.16 107.34 451.141 108.023 451.102 108.648C451.102 109.234 451.082 109.547 451.043 109.586C450.73 110.016 450.32 110.25 449.812 110.289C449.344 110.367 448.895 110.406 448.465 110.406C447.254 110.406 446.355 110.348 445.77 110.23C445.184 110.113 444.754 109.879 444.48 109.527C444.207 109.176 444.031 108.688 443.953 108.062C443.914 107.438 443.816 106.617 443.66 105.602C443.543 105.133 443.387 104.664 443.191 104.195C443.035 103.727 442.957 103.219 442.957 102.672ZM467.73 102.672C467.73 102.281 467.867 101.988 468.141 101.793C468.414 101.559 468.746 101.402 469.137 101.324C469.566 101.207 469.977 101.148 470.367 101.148C470.797 101.148 471.168 101.148 471.48 101.148C471.871 101.148 472.32 101.168 472.828 101.207C473.375 101.207 473.883 101.285 474.352 101.441C474.82 101.559 475.211 101.773 475.523 102.086C475.875 102.359 476.051 102.75 476.051 103.258C476.051 103.453 476.031 103.883 475.992 104.547C475.992 105.172 475.973 105.855 475.934 106.598C475.934 107.34 475.914 108.023 475.875 108.648C475.875 109.234 475.855 109.547 475.816 109.586C475.504 110.016 475.094 110.25 474.586 110.289C474.117 110.367 473.668 110.406 473.238 110.406C472.027 110.406 471.129 110.348 470.543 110.23C469.957 110.113 469.527 109.879 469.254 109.527C468.98 109.176 468.805 108.688 468.727 108.062C468.688 107.438 468.59 106.617 468.434 105.602C468.316 105.133 468.16 104.664 467.965 104.195C467.809 103.727 467.73 103.219 467.73 102.672ZM492.504 102.672C492.504 102.281 492.641 101.988 492.914 101.793C493.188 101.559 493.52 101.402 493.91 101.324C494.34 101.207 494.75 101.148 495.141 101.148C495.57 101.148 495.941 101.148 496.254 101.148C496.645 101.148 497.094 101.168 497.602 101.207C498.148 101.207 498.656 101.285 499.125 101.441C499.594 101.559 499.984 101.773 500.297 102.086C500.648 102.359 500.824 102.75 500.824 103.258C500.824 103.453 500.805 103.883 500.766 104.547C500.766 105.172 500.746 105.855 500.707 106.598C500.707 107.34 500.688 108.023 500.648 108.648C500.648 109.234 500.629 109.547 500.59 109.586C500.277 110.016 499.867 110.25 499.359 110.289C498.891 110.367 498.441 110.406 498.012 110.406C496.801 110.406 495.902 110.348 495.316 110.23C494.73 110.113 494.301 109.879 494.027 109.527C493.754 109.176 493.578 108.688 493.5 108.062C493.461 107.438 493.363 106.617 493.207 105.602C493.09 105.133 492.934 104.664 492.738 104.195C492.582 103.727 492.504 103.219 492.504 102.672ZM538.371 108.365C538.371 109.016 538.208 109.456 537.883 109.684C537.557 109.944 537.102 110.074 536.516 110.074C534.986 110.074 533.879 109.667 533.195 108.854C532.544 108.04 532.056 106.965 531.73 105.631C531.633 105.175 531.535 104.719 531.438 104.264C531.34 103.775 531.258 103.303 531.193 102.848C531.128 102.424 531.063 102.132 530.998 101.969C530.933 101.806 530.868 101.497 530.803 101.041C530.412 101.985 529.924 102.978 529.338 104.02C528.785 105.029 528.133 105.973 527.385 106.852C526.636 107.698 525.79 108.398 524.846 108.951C523.934 109.505 522.925 109.781 521.818 109.781C520.646 109.781 519.67 109.505 518.889 108.951C518.107 108.365 517.489 107.649 517.033 106.803C516.61 105.924 516.301 104.964 516.105 103.922C515.943 102.88 515.861 101.887 515.861 100.943C515.861 98.7298 516.073 96.3372 516.496 93.7656C516.952 91.1615 517.57 88.5736 518.352 86.002C519.133 83.3978 520.044 80.9076 521.086 78.5312C522.128 76.1224 523.267 74.0228 524.504 72.2324V72.2812L524.797 71.8418C525.155 71.3535 525.562 70.8327 526.018 70.2793C526.506 69.6934 527.076 69.4004 527.727 69.4004C528.345 69.4004 528.882 69.6771 529.338 70.2305C529.794 70.7513 530.119 71.3047 530.314 71.8906C531.161 72.0534 531.844 72.265 532.365 72.5254C532.886 72.7533 533.293 73.0462 533.586 73.4043C533.879 73.7624 534.074 74.1855 534.172 74.6738C534.27 75.1296 534.318 75.6341 534.318 76.1875C534.318 76.4154 534.318 76.6595 534.318 76.9199C534.318 77.1803 534.302 77.4408 534.27 77.7012C534.237 77.9616 534.221 78.2708 534.221 78.6289C534.221 78.987 534.221 79.3125 534.221 79.6055C534.221 79.931 534.27 80.3542 534.367 80.875C534.497 81.3958 534.628 81.9329 534.758 82.4863L535.1 84.293C535.262 85.237 535.393 86.3112 535.49 87.5156C535.62 88.7201 535.767 89.9245 535.93 91.1289C536.06 92.3659 536.19 93.5703 536.32 94.7422C536.451 95.8815 536.581 96.9395 536.711 97.916L537.883 105.143L538.029 105.973C538.094 106.396 538.16 106.786 538.225 107.145C538.322 107.503 538.371 107.91 538.371 108.365ZM527.189 80.2891C527.189 80.224 527.173 80.1263 527.141 79.9961C527.108 79.8333 527.076 79.6706 527.043 79.5078C526.294 81.1029 525.627 82.8444 525.041 84.7324C524.488 86.5879 524.016 88.4922 523.625 90.4453C523.267 92.3659 522.99 94.3027 522.795 96.2559C522.632 98.1764 522.551 99.9993 522.551 101.725C522.551 101.887 522.551 102.034 522.551 102.164C522.551 102.294 522.567 102.424 522.6 102.555V102.604C523.381 101.399 524.048 99.8203 524.602 97.8672C525.188 95.8815 525.676 93.8145 526.066 91.666C526.457 89.485 526.734 87.3854 526.896 85.3672C527.092 83.3164 527.189 81.6237 527.189 80.2891ZM578.605 81.4121C578.605 82.7467 578.54 84.2279 578.41 85.8555C578.28 87.4505 578.085 89.1107 577.824 90.8359C577.564 92.5612 577.206 94.3027 576.75 96.0605C576.327 97.7858 575.806 99.446 575.188 101.041C574.569 102.636 573.837 104.117 572.99 105.484C572.176 106.819 571.249 107.942 570.207 108.854C569.458 109.505 568.612 110.025 567.668 110.416C566.757 110.839 565.812 111.051 564.836 111.051C564.478 111.051 564.104 110.986 563.713 110.855C563.322 110.758 563.029 110.497 562.834 110.074C562.118 110.009 561.402 109.863 560.686 109.635C560.002 109.439 559.432 108.984 558.977 108.268C558.879 108.04 558.798 107.763 558.732 107.438C558.667 107.112 558.602 106.77 558.537 106.412C558.505 106.249 558.472 106.103 558.439 105.973C558.407 105.81 558.374 105.663 558.342 105.533C557.398 99.6738 556.747 93.8145 556.389 87.9551C556.063 82.0957 555.9 76.1875 555.9 70.2305C555.9 69.7096 555.9 68.7982 555.9 67.4961C555.9 66.194 555.9 64.7129 555.9 63.0527C555.933 61.3926 555.949 59.651 555.949 57.8281C555.982 56.0052 556.014 54.2962 556.047 52.7012C556.079 51.1061 556.128 49.7389 556.193 48.5996C556.258 47.4277 556.324 46.679 556.389 46.3535C556.519 45.8978 556.698 45.5234 556.926 45.2305C557.154 44.9375 557.544 44.791 558.098 44.791C559.628 44.791 560.718 45.2793 561.369 46.2559C562.053 47.1999 562.395 48.3717 562.395 49.7715V62.3203C562.395 63.8503 562.395 65.2337 562.395 66.4707C562.395 67.6751 562.395 68.8633 562.395 70.0352C562.427 71.1745 562.46 72.3626 562.492 73.5996C562.525 74.804 562.574 76.1549 562.639 77.6523C563.029 76.7734 563.501 75.9108 564.055 75.0645C564.641 74.2181 565.292 73.4531 566.008 72.7695C566.724 72.0859 567.521 71.5326 568.4 71.1094C569.279 70.6862 570.256 70.4746 571.33 70.4746C572.893 70.4746 574.146 70.8164 575.09 71.5C576.066 72.1836 576.799 73.0625 577.287 74.1367C577.808 75.1784 578.15 76.3503 578.312 77.6523C578.508 78.9544 578.605 80.2077 578.605 81.4121ZM571.867 80.2891C571.867 79.638 571.835 78.9219 571.77 78.1406C571.737 77.3594 571.542 76.6758 571.184 76.0898C570.891 76.3177 570.63 76.5618 570.402 76.8223C570.207 77.0827 569.995 77.3757 569.768 77.7012L569.67 77.8477V77.7988C568.758 79.2962 568.01 81.0378 567.424 83.0234C566.87 85.0091 566.415 87.0762 566.057 89.2246C565.731 91.3405 565.503 93.4564 565.373 95.5723C565.243 97.6556 565.178 99.5436 565.178 101.236C565.178 101.594 565.178 102.132 565.178 102.848C565.21 103.531 565.275 104.101 565.373 104.557C566.643 103.482 567.684 101.92 568.498 99.8691C569.344 97.7858 570.012 95.556 570.5 93.1797C571.021 90.7708 571.379 88.4108 571.574 86.0996C571.77 83.7884 571.867 81.8516 571.867 80.2891ZM601.066 100.064C601.066 101.041 600.79 102.05 600.236 103.092C599.715 104.133 599.032 105.094 598.186 105.973C597.339 106.819 596.363 107.519 595.256 108.072C594.182 108.626 593.107 108.902 592.033 108.902C590.503 108.902 589.185 108.609 588.078 108.023C586.971 107.405 586.011 106.591 585.197 105.582C584.383 104.54 583.716 103.368 583.195 102.066C582.707 100.764 582.316 99.4297 582.023 98.0625C581.73 96.6628 581.519 95.2793 581.389 93.9121C581.291 92.5124 581.242 91.2428 581.242 90.1035C581.242 89.127 581.291 87.9714 581.389 86.6367C581.519 85.3021 581.714 83.9186 581.975 82.4863C582.268 81.054 582.658 79.638 583.146 78.2383C583.635 76.8385 584.237 75.5853 584.953 74.4785C585.702 73.3717 586.581 72.4766 587.59 71.793C588.632 71.1094 589.82 70.7676 591.154 70.7676C592.196 70.7676 593.124 70.9792 593.938 71.4023C594.784 71.8255 595.484 72.3952 596.037 73.1113C596.623 73.7949 597.062 74.5924 597.355 75.5039C597.681 76.4154 597.844 77.3594 597.844 78.3359C597.844 79.6055 597.551 80.9889 596.965 82.4863C596.379 83.9837 595.614 85.4323 594.67 86.832C593.758 88.2318 592.717 89.5013 591.545 90.6406C590.406 91.7474 589.266 92.5938 588.127 93.1797C588.192 93.7656 588.322 94.6283 588.518 95.7676C588.713 96.8743 588.973 97.9811 589.299 99.0879C589.657 100.195 590.064 101.155 590.52 101.969C591.008 102.783 591.577 103.189 592.229 103.189C592.554 103.189 592.831 103.092 593.059 102.896C593.319 102.701 593.547 102.441 593.742 102.115C593.938 101.79 594.1 101.432 594.23 101.041C594.393 100.65 594.54 100.276 594.67 99.918L594.963 99.2344C595.028 99.1367 595.061 99.0716 595.061 99.0391C595.093 99.0065 595.126 98.9577 595.158 98.8926C595.386 98.4694 595.598 98.0788 595.793 97.7207C596.021 97.3626 596.33 97.0534 596.721 96.793H596.672C596.802 96.6628 596.932 96.5977 597.062 96.5977C597.225 96.5651 597.372 96.5488 597.502 96.5488C597.86 96.5488 598.251 96.6628 598.674 96.8906C599.097 97.1185 599.488 97.4115 599.846 97.7695C600.204 98.0951 600.497 98.4694 600.725 98.8926C600.952 99.2832 601.066 99.6738 601.066 100.064ZM591.398 78.5312C591.398 78.2057 591.382 77.8639 591.35 77.5059C591.317 77.1478 591.236 76.8385 591.105 76.5781C590.65 77.1315 590.243 77.7988 589.885 78.5801C589.559 79.3288 589.283 80.1263 589.055 80.9727C588.827 81.7865 588.632 82.6165 588.469 83.4629C588.339 84.3092 588.241 85.0905 588.176 85.8066C589.022 84.7975 589.771 83.6582 590.422 82.3887C591.073 81.0866 591.398 79.8008 591.398 78.5312ZM614.152 107.779C614.152 108.137 614.071 108.447 613.908 108.707C613.745 108.935 613.534 109.114 613.273 109.244C613.046 109.374 612.785 109.456 612.492 109.488C612.232 109.553 611.971 109.586 611.711 109.586C611.353 109.586 610.93 109.537 610.441 109.439C609.986 109.374 609.53 109.26 609.074 109.098C608.618 108.935 608.195 108.74 607.805 108.512C607.447 108.251 607.17 107.942 606.975 107.584C606.779 107.258 606.6 106.656 606.438 105.777C606.307 104.866 606.193 103.824 606.096 102.652C605.998 101.448 605.917 100.178 605.852 98.8438C605.786 97.4766 605.721 96.1745 605.656 94.9375C605.624 93.7005 605.591 92.5938 605.559 91.6172C605.559 90.6081 605.559 89.8594 605.559 89.3711C605.559 87.0924 605.591 84.8952 605.656 82.7793C605.754 80.6309 605.852 78.4336 605.949 76.1875C605.786 76.1875 605.624 76.2038 605.461 76.2363C605.298 76.2689 605.135 76.2852 604.973 76.2852C604.549 76.3503 604.11 76.3991 603.654 76.4316C603.231 76.4642 602.792 76.4805 602.336 76.4805C601.783 76.4805 601.294 76.3828 600.871 76.1875C600.448 75.9922 600.236 75.5527 600.236 74.8691C600.236 74.0553 600.415 73.4043 600.773 72.916C601.132 72.4277 601.587 72.0534 602.141 71.793C602.694 71.5 603.296 71.3047 603.947 71.207C604.598 71.0768 605.233 70.9792 605.852 70.9141C605.949 70.9141 606.014 70.9141 606.047 70.9141C606.079 70.8815 606.145 70.8652 606.242 70.8652C606.275 70.4746 606.307 70.0026 606.34 69.4492C606.372 68.8633 606.405 68.2285 606.438 67.5449C606.47 66.4707 606.519 65.3314 606.584 64.127C606.649 62.89 606.714 61.7181 606.779 60.6113C606.844 59.472 606.926 58.4792 607.023 57.6328C607.121 56.7539 607.219 56.1354 607.316 55.7773C607.479 55.3542 607.658 55.0124 607.854 54.752C608.081 54.4915 608.488 54.3613 609.074 54.3613C610.376 54.3613 611.385 54.7845 612.102 55.6309C612.818 56.4772 613.176 57.5189 613.176 58.7559C613.176 60.1882 613.127 61.6204 613.029 63.0527C612.964 64.485 612.899 65.9336 612.834 67.3984L612.688 69.8887C613.501 69.791 614.315 69.6445 615.129 69.4492C615.91 69.2865 616.691 69.14 617.473 69.0098C618.286 68.8796 619.068 68.8145 619.816 68.8145C620.467 68.8145 620.972 68.9935 621.33 69.3516C621.688 69.6771 621.867 70.1654 621.867 70.8164C621.867 71.5326 621.737 72.2324 621.477 72.916C621.216 73.5996 620.76 74.1204 620.109 74.4785H620.158C620.028 74.5436 619.637 74.6413 618.986 74.7715C618.335 74.8691 617.587 74.9668 616.74 75.0645C615.926 75.1621 615.113 75.2598 614.299 75.3574C613.518 75.4551 612.932 75.5202 612.541 75.5527H612.492C612.427 77.3757 612.378 79.1823 612.346 80.9727C612.313 82.7305 612.297 84.5208 612.297 86.3438C612.297 88.8503 612.362 91.5195 612.492 94.3516C612.655 97.151 612.915 99.8203 613.273 102.359L613.664 104.557C613.794 105.11 613.908 105.663 614.006 106.217C614.104 106.738 614.152 107.258 614.152 107.779ZM633.684 107.779C633.684 108.137 633.602 108.447 633.439 108.707C633.277 108.935 633.065 109.114 632.805 109.244C632.577 109.374 632.316 109.456 632.023 109.488C631.763 109.553 631.503 109.586 631.242 109.586C630.884 109.586 630.461 109.537 629.973 109.439C629.517 109.374 629.061 109.26 628.605 109.098C628.15 108.935 627.727 108.74 627.336 108.512C626.978 108.251 626.701 107.942 626.506 107.584C626.311 107.258 626.132 106.656 625.969 105.777C625.839 104.866 625.725 103.824 625.627 102.652C625.529 101.448 625.448 100.178 625.383 98.8438C625.318 97.4766 625.253 96.1745 625.188 94.9375C625.155 93.7005 625.122 92.5938 625.09 91.6172C625.09 90.6081 625.09 89.8594 625.09 89.3711C625.09 87.0924 625.122 84.8952 625.188 82.7793C625.285 80.6309 625.383 78.4336 625.48 76.1875C625.318 76.1875 625.155 76.2038 624.992 76.2363C624.829 76.2689 624.667 76.2852 624.504 76.2852C624.081 76.3503 623.641 76.3991 623.186 76.4316C622.762 76.4642 622.323 76.4805 621.867 76.4805C621.314 76.4805 620.826 76.3828 620.402 76.1875C619.979 75.9922 619.768 75.5527 619.768 74.8691C619.768 74.0553 619.947 73.4043 620.305 72.916C620.663 72.4277 621.118 72.0534 621.672 71.793C622.225 71.5 622.827 71.3047 623.479 71.207C624.13 71.0768 624.764 70.9792 625.383 70.9141C625.48 70.9141 625.546 70.9141 625.578 70.9141C625.611 70.8815 625.676 70.8652 625.773 70.8652C625.806 70.4746 625.839 70.0026 625.871 69.4492C625.904 68.8633 625.936 68.2285 625.969 67.5449C626.001 66.4707 626.05 65.3314 626.115 64.127C626.18 62.89 626.245 61.7181 626.311 60.6113C626.376 59.472 626.457 58.4792 626.555 57.6328C626.652 56.7539 626.75 56.1354 626.848 55.7773C627.01 55.3542 627.189 55.0124 627.385 54.752C627.613 54.4915 628.02 54.3613 628.605 54.3613C629.908 54.3613 630.917 54.7845 631.633 55.6309C632.349 56.4772 632.707 57.5189 632.707 58.7559C632.707 60.1882 632.658 61.6204 632.561 63.0527C632.495 64.485 632.43 65.9336 632.365 67.3984L632.219 69.8887C633.033 69.791 633.846 69.6445 634.66 69.4492C635.441 69.2865 636.223 69.14 637.004 69.0098C637.818 68.8796 638.599 68.8145 639.348 68.8145C639.999 68.8145 640.503 68.9935 640.861 69.3516C641.219 69.6771 641.398 70.1654 641.398 70.8164C641.398 71.5326 641.268 72.2324 641.008 72.916C640.747 73.5996 640.292 74.1204 639.641 74.4785H639.689C639.559 74.5436 639.169 74.6413 638.518 74.7715C637.867 74.8691 637.118 74.9668 636.271 75.0645C635.458 75.1621 634.644 75.2598 633.83 75.3574C633.049 75.4551 632.463 75.5202 632.072 75.5527H632.023C631.958 77.3757 631.91 79.1823 631.877 80.9727C631.844 82.7305 631.828 84.5208 631.828 86.3438C631.828 88.8503 631.893 91.5195 632.023 94.3516C632.186 97.151 632.447 99.8203 632.805 102.359L633.195 104.557C633.326 105.11 633.439 105.663 633.537 106.217C633.635 106.738 633.684 107.258 633.684 107.779ZM660.148 100.064C660.148 101.041 659.872 102.05 659.318 103.092C658.798 104.133 658.114 105.094 657.268 105.973C656.421 106.819 655.445 107.519 654.338 108.072C653.264 108.626 652.189 108.902 651.115 108.902C649.585 108.902 648.267 108.609 647.16 108.023C646.053 107.405 645.093 106.591 644.279 105.582C643.465 104.54 642.798 103.368 642.277 102.066C641.789 100.764 641.398 99.4297 641.105 98.0625C640.812 96.6628 640.601 95.2793 640.471 93.9121C640.373 92.5124 640.324 91.2428 640.324 90.1035C640.324 89.127 640.373 87.9714 640.471 86.6367C640.601 85.3021 640.796 83.9186 641.057 82.4863C641.35 81.054 641.74 79.638 642.229 78.2383C642.717 76.8385 643.319 75.5853 644.035 74.4785C644.784 73.3717 645.663 72.4766 646.672 71.793C647.714 71.1094 648.902 70.7676 650.236 70.7676C651.278 70.7676 652.206 70.9792 653.02 71.4023C653.866 71.8255 654.566 72.3952 655.119 73.1113C655.705 73.7949 656.145 74.5924 656.438 75.5039C656.763 76.4154 656.926 77.3594 656.926 78.3359C656.926 79.6055 656.633 80.9889 656.047 82.4863C655.461 83.9837 654.696 85.4323 653.752 86.832C652.84 88.2318 651.799 89.5013 650.627 90.6406C649.488 91.7474 648.348 92.5938 647.209 93.1797C647.274 93.7656 647.404 94.6283 647.6 95.7676C647.795 96.8743 648.055 97.9811 648.381 99.0879C648.739 100.195 649.146 101.155 649.602 101.969C650.09 102.783 650.66 103.189 651.311 103.189C651.636 103.189 651.913 103.092 652.141 102.896C652.401 102.701 652.629 102.441 652.824 102.115C653.02 101.79 653.182 101.432 653.312 101.041C653.475 100.65 653.622 100.276 653.752 99.918L654.045 99.2344C654.11 99.1367 654.143 99.0716 654.143 99.0391C654.175 99.0065 654.208 98.9577 654.24 98.8926C654.468 98.4694 654.68 98.0788 654.875 97.7207C655.103 97.3626 655.412 97.0534 655.803 96.793H655.754C655.884 96.6628 656.014 96.5977 656.145 96.5977C656.307 96.5651 656.454 96.5488 656.584 96.5488C656.942 96.5488 657.333 96.6628 657.756 96.8906C658.179 97.1185 658.57 97.4115 658.928 97.7695C659.286 98.0951 659.579 98.4694 659.807 98.8926C660.035 99.2832 660.148 99.6738 660.148 100.064ZM650.48 78.5312C650.48 78.2057 650.464 77.8639 650.432 77.5059C650.399 77.1478 650.318 76.8385 650.188 76.5781C649.732 77.1315 649.325 77.7988 648.967 78.5801C648.641 79.3288 648.365 80.1263 648.137 80.9727C647.909 81.7865 647.714 82.6165 647.551 83.4629C647.421 84.3092 647.323 85.0905 647.258 85.8066C648.104 84.7975 648.853 83.6582 649.504 82.3887C650.155 81.0866 650.48 79.8008 650.48 78.5312ZM666.984 109.781C666.496 109.781 665.959 109.716 665.373 109.586C664.82 109.456 664.283 109.244 663.762 108.951C663.273 108.658 662.85 108.3 662.492 107.877C662.167 107.421 662.004 106.884 662.004 106.266C662.004 105.354 662.036 104.459 662.102 103.58C662.199 102.669 662.297 101.773 662.395 100.895V100.943L662.688 97.6719C662.785 96.5 662.867 95.2142 662.932 93.8145C662.997 92.4147 663.046 90.9987 663.078 89.5664C663.143 88.1016 663.192 86.6693 663.225 85.2695C663.257 83.8698 663.273 82.584 663.273 81.4121C663.273 80.7285 663.257 80.0449 663.225 79.3613C663.225 78.6452 663.225 77.929 663.225 77.2129C663.192 76.5944 663.176 75.9108 663.176 75.1621C663.176 74.3809 663.176 73.6647 663.176 73.0137C663.176 72.3301 663.257 71.7767 663.42 71.3535C663.615 70.8978 664.136 70.6699 664.982 70.6699C665.731 70.6699 666.512 70.8652 667.326 71.2559C668.173 71.6465 668.758 72.1999 669.084 72.916H669.035C669.198 73.2741 669.312 73.86 669.377 74.6738C669.475 75.4551 669.54 76.1549 669.572 76.7734C670.126 75.9271 670.744 75.0319 671.428 74.0879C672.144 73.1439 672.909 72.2812 673.723 71.5C674.536 70.6862 675.399 70.0189 676.311 69.498C677.222 68.9772 678.199 68.7168 679.24 68.7168C680.607 68.7168 681.649 69.0586 682.365 69.7422C683.081 70.4258 683.602 71.2884 683.928 72.3301C684.253 73.3392 684.432 74.4297 684.465 75.6016C684.497 76.7409 684.514 77.7826 684.514 78.7266V79.1172C684.514 79.5078 684.497 79.8984 684.465 80.2891C684.465 80.6471 684.4 80.9889 684.27 81.3145C684.172 81.6074 683.977 81.8516 683.684 82.0469C683.423 82.2422 683.049 82.3398 682.561 82.3398C682.04 82.3398 681.486 82.2747 680.9 82.1445C680.314 81.9818 679.761 81.7539 679.24 81.4609C678.752 81.168 678.329 80.8099 677.971 80.3867C677.613 79.931 677.417 79.4102 677.385 78.8242C677.385 78.5638 677.385 78.3034 677.385 78.043C677.385 77.7826 677.401 77.5221 677.434 77.2617C677.434 77.099 677.434 76.9036 677.434 76.6758C677.466 76.4154 677.482 76.1712 677.482 75.9434C676.441 76.985 675.513 78.2708 674.699 79.8008C673.918 81.3307 673.202 82.9583 672.551 84.6836C671.932 86.4089 671.395 88.1504 670.939 89.9082C670.484 91.6335 670.093 93.196 669.768 94.5957V94.7422C669.67 95.7513 669.605 96.7441 669.572 97.7207C669.54 98.6973 669.507 99.7064 669.475 100.748C669.442 101.92 669.393 103.108 669.328 104.312C669.296 105.517 669.214 106.689 669.084 107.828C669.019 108.447 668.824 108.919 668.498 109.244C668.205 109.602 667.701 109.781 666.984 109.781ZM718.498 78.1406C718.498 78.401 718.498 78.6615 718.498 78.9219C718.498 79.1497 718.465 79.3776 718.4 79.6055C718.889 81.3633 719.328 83.1374 719.719 84.9277C720.142 86.6855 720.549 88.4434 720.939 90.2012C721.135 88.2155 721.298 86.2298 721.428 84.2441C721.59 82.2259 721.672 80.224 721.672 78.2383C721.672 76.2852 721.607 74.2995 721.477 72.2812C721.346 70.2305 721.021 68.2773 720.5 66.4219L720.305 65.7383C720.24 65.5755 720.191 65.3965 720.158 65.2012C720.126 65.0059 720.109 64.8105 720.109 64.6152C720.109 64.2572 720.191 63.9805 720.354 63.7852C720.549 63.5573 720.777 63.3945 721.037 63.2969C721.298 63.1992 721.59 63.1341 721.916 63.1016C722.242 63.069 722.535 63.0527 722.795 63.0527C723.609 63.0527 724.455 63.1504 725.334 63.3457C725.92 63.5085 726.392 63.7526 726.75 64.0781C727.108 64.3711 727.368 64.7292 727.531 65.1523C727.727 65.5755 727.857 66.0475 727.922 66.5684C727.987 67.0566 728.036 67.5612 728.068 68.082C728.068 68.1471 728.068 68.2122 728.068 68.2773C728.101 68.3424 728.117 68.4076 728.117 68.4727C728.28 69.9049 728.394 71.3535 728.459 72.8184C728.557 74.2507 728.605 75.6667 728.605 77.0664C728.605 81.4284 728.345 85.7741 727.824 90.1035C727.336 94.4329 726.734 98.7298 726.018 102.994C725.92 103.645 725.773 104.312 725.578 104.996C725.415 105.68 725.171 106.314 724.846 106.9C724.52 107.486 724.097 107.975 723.576 108.365C723.055 108.723 722.404 108.902 721.623 108.902C720.744 108.902 720.028 108.707 719.475 108.316C718.921 107.893 718.465 107.372 718.107 106.754C717.782 106.103 717.538 105.387 717.375 104.605C717.212 103.824 717.082 103.059 716.984 102.311C716.919 101.952 716.854 101.627 716.789 101.334C716.757 101.041 716.708 100.764 716.643 100.504L715.275 94.4492C715.015 95.3607 714.657 96.5163 714.201 97.916C713.778 99.2832 713.306 100.667 712.785 102.066C712.297 103.466 711.792 104.736 711.271 105.875C710.783 107.014 710.376 107.796 710.051 108.219C709.693 108.642 709.237 108.967 708.684 109.195C708.13 109.456 707.577 109.586 707.023 109.586C706.047 109.586 705.201 109.277 704.484 108.658C703.833 108.007 703.41 107.258 703.215 106.412C703.02 105.566 702.873 104.719 702.775 103.873C702.775 103.808 702.759 103.727 702.727 103.629C702.727 103.531 702.727 103.45 702.727 103.385C702.238 99.804 701.88 96.1745 701.652 92.4961C701.424 88.7852 701.311 85.0905 701.311 81.4121V73.3066C701.311 73.0137 701.327 72.7044 701.359 72.3789C701.392 72.0534 701.457 71.7604 701.555 71.5C701.685 71.207 701.864 70.9792 702.092 70.8164C702.352 70.6536 702.71 70.5723 703.166 70.5723C704.37 70.5723 705.363 70.9303 706.145 71.6465C706.926 72.3626 707.365 73.3066 707.463 74.4785C707.561 76.041 707.626 77.6198 707.658 79.2148C707.723 80.8099 707.772 82.3887 707.805 83.9512C707.837 85.7415 707.854 87.4831 707.854 89.1758C707.886 90.8359 708 92.5938 708.195 94.4492C708.586 93.1797 708.96 91.8613 709.318 90.4941C709.676 89.127 709.986 87.7435 710.246 86.3438C710.539 84.944 710.767 83.5605 710.93 82.1934C711.125 80.7936 711.223 79.4427 711.223 78.1406C711.223 77.9779 711.206 77.8477 711.174 77.75C711.174 77.6198 711.174 77.4733 711.174 77.3105C711.141 77.1478 711.125 76.985 711.125 76.8223C711.125 76.6595 711.125 76.4967 711.125 76.334C711.125 75.5202 711.304 74.918 711.662 74.5273C712.02 74.1367 712.639 73.9414 713.518 73.9414C713.843 73.9414 714.234 73.9902 714.689 74.0879C715.178 74.1855 715.65 74.332 716.105 74.5273C716.594 74.7227 717.033 74.9668 717.424 75.2598C717.814 75.5527 718.075 75.8783 718.205 76.2363H718.156C718.319 76.5618 718.417 76.8711 718.449 77.1641C718.482 77.457 718.498 77.7826 718.498 78.1406ZM753.898 108.365C753.898 109.016 753.736 109.456 753.41 109.684C753.085 109.944 752.629 110.074 752.043 110.074C750.513 110.074 749.406 109.667 748.723 108.854C748.072 108.04 747.583 106.965 747.258 105.631C747.16 105.175 747.062 104.719 746.965 104.264C746.867 103.775 746.786 103.303 746.721 102.848C746.656 102.424 746.59 102.132 746.525 101.969C746.46 101.806 746.395 101.497 746.33 101.041C745.939 101.985 745.451 102.978 744.865 104.02C744.312 105.029 743.661 105.973 742.912 106.852C742.163 107.698 741.317 108.398 740.373 108.951C739.462 109.505 738.452 109.781 737.346 109.781C736.174 109.781 735.197 109.505 734.416 108.951C733.635 108.365 733.016 107.649 732.561 106.803C732.137 105.924 731.828 104.964 731.633 103.922C731.47 102.88 731.389 101.887 731.389 100.943C731.389 98.7298 731.6 96.3372 732.023 93.7656C732.479 91.1615 733.098 88.5736 733.879 86.002C734.66 83.3978 735.572 80.9076 736.613 78.5312C737.655 76.1224 738.794 74.0228 740.031 72.2324V72.2812L740.324 71.8418C740.682 71.3535 741.089 70.8327 741.545 70.2793C742.033 69.6934 742.603 69.4004 743.254 69.4004C743.872 69.4004 744.41 69.6771 744.865 70.2305C745.321 70.7513 745.646 71.3047 745.842 71.8906C746.688 72.0534 747.372 72.265 747.893 72.5254C748.413 72.7533 748.82 73.0462 749.113 73.4043C749.406 73.7624 749.602 74.1855 749.699 74.6738C749.797 75.1296 749.846 75.6341 749.846 76.1875C749.846 76.4154 749.846 76.6595 749.846 76.9199C749.846 77.1803 749.829 77.4408 749.797 77.7012C749.764 77.9616 749.748 78.2708 749.748 78.6289C749.748 78.987 749.748 79.3125 749.748 79.6055C749.748 79.931 749.797 80.3542 749.895 80.875C750.025 81.3958 750.155 81.9329 750.285 82.4863L750.627 84.293C750.79 85.237 750.92 86.3112 751.018 87.5156C751.148 88.7201 751.294 89.9245 751.457 91.1289C751.587 92.3659 751.717 93.5703 751.848 94.7422C751.978 95.8815 752.108 96.9395 752.238 97.916L753.41 105.143L753.557 105.973C753.622 106.396 753.687 106.786 753.752 107.145C753.85 107.503 753.898 107.91 753.898 108.365ZM742.717 80.2891C742.717 80.224 742.701 80.1263 742.668 79.9961C742.635 79.8333 742.603 79.6706 742.57 79.5078C741.822 81.1029 741.154 82.8444 740.568 84.7324C740.015 86.5879 739.543 88.4922 739.152 90.4453C738.794 92.3659 738.518 94.3027 738.322 96.2559C738.16 98.1764 738.078 99.9993 738.078 101.725C738.078 101.887 738.078 102.034 738.078 102.164C738.078 102.294 738.094 102.424 738.127 102.555V102.604C738.908 101.399 739.576 99.8203 740.129 97.8672C740.715 95.8815 741.203 93.8145 741.594 91.666C741.984 89.485 742.261 87.3854 742.424 85.3672C742.619 83.3164 742.717 81.6237 742.717 80.2891ZM776.066 112.32C776.066 113.655 776.018 115.055 775.92 116.52C775.822 117.984 775.66 119.449 775.432 120.914C775.204 122.411 774.895 123.876 774.504 125.309C774.113 126.741 773.625 128.076 773.039 129.312C772.062 131.135 770.826 132.73 769.328 134.098C767.863 135.497 766.252 136.669 764.494 137.613C762.736 138.557 760.865 139.273 758.879 139.762C756.893 140.25 754.891 140.494 752.873 140.494C752.58 140.494 752.238 140.478 751.848 140.445C751.424 140.413 751.018 140.331 750.627 140.201C750.236 140.104 749.911 139.924 749.65 139.664C749.39 139.404 749.26 139.046 749.26 138.59C749.26 138.395 749.309 138.199 749.406 138.004C749.406 137.939 749.423 137.874 749.455 137.809C749.455 137.776 749.455 137.743 749.455 137.711C749.683 137.06 749.943 136.539 750.236 136.148C750.529 135.758 750.871 135.449 751.262 135.221C751.62 135.025 752.059 134.879 752.58 134.781C753.068 134.716 753.638 134.651 754.289 134.586C756.372 134.488 758.342 134 760.197 133.121V133.17C762.313 132.128 763.973 130.826 765.178 129.264C766.415 127.734 767.342 126.025 767.961 124.137C768.612 122.281 769.019 120.312 769.182 118.229C769.344 116.145 769.426 114.046 769.426 111.93C769.426 111.441 769.426 111.083 769.426 110.855C769.426 110.628 769.426 110.416 769.426 110.221C769.426 110.058 769.426 109.863 769.426 109.635C769.426 109.407 769.41 109.049 769.377 108.561C768.238 109.439 767.049 109.879 765.812 109.879C764.38 109.879 763.16 109.488 762.15 108.707C761.174 107.893 760.344 106.852 759.66 105.582C759.009 104.28 758.488 102.815 758.098 101.188C757.74 99.5273 757.463 97.8509 757.268 96.1582C757.105 94.4329 756.991 92.7565 756.926 91.1289C756.893 89.5013 756.877 88.0527 756.877 86.7832V84.7324C756.877 83.0072 756.877 81.3145 756.877 79.6543C756.91 77.9941 756.975 76.334 757.072 74.6738V73.9414C757.072 73.5508 757.072 73.1602 757.072 72.7695C757.072 72.3789 757.105 72.0046 757.17 71.6465C757.3 71.1257 757.479 70.7513 757.707 70.5234C757.967 70.2956 758.374 70.1816 758.928 70.1816C759.188 70.1816 759.432 70.1979 759.66 70.2305C759.921 70.263 760.181 70.3118 760.441 70.377C761.06 70.6374 761.548 70.9141 761.906 71.207C762.264 71.4674 762.525 71.793 762.688 72.1836C762.883 72.5417 762.997 72.9648 763.029 73.4531C763.094 73.9414 763.127 74.5111 763.127 75.1621V81.7051C763.127 82.4863 763.127 83.4629 763.127 84.6348C763.16 85.7741 763.208 87.0273 763.273 88.3945C763.339 89.7617 763.42 91.1777 763.518 92.6426C763.615 94.1074 763.762 95.5234 763.957 96.8906C764.152 98.2578 764.38 99.5111 764.641 100.65C764.901 101.79 765.227 102.734 765.617 103.482C766.203 102.213 766.708 100.732 767.131 99.0391C767.554 97.3138 767.896 95.4746 768.156 93.5215C768.449 91.5358 768.661 89.5013 768.791 87.418C768.954 85.3346 769.068 83.3001 769.133 81.3145C769.23 79.3288 769.279 77.457 769.279 75.6992C769.312 73.9089 769.328 72.3464 769.328 71.0117C769.328 70.6862 769.328 70.3444 769.328 69.9863C769.361 69.5957 769.442 69.2539 769.572 68.9609C769.702 68.6354 769.882 68.375 770.109 68.1797C770.37 67.9844 770.744 67.8867 771.232 67.8867C771.46 67.8867 771.704 67.9193 771.965 67.9844C772.258 68.0495 772.502 68.1146 772.697 68.1797C772.762 68.1797 772.827 68.196 772.893 68.2285C772.99 68.2285 773.072 68.2285 773.137 68.2285C773.592 68.3913 774.032 68.554 774.455 68.7168C774.878 68.8796 775.236 69.0911 775.529 69.3516C775.855 69.5794 776.099 69.8887 776.262 70.2793C776.457 70.6699 776.555 71.1745 776.555 71.793C776.555 72.5417 776.538 73.4043 776.506 74.3809C776.506 75.3249 776.473 76.3177 776.408 77.3594C776.376 78.401 776.327 79.4264 776.262 80.4355C776.197 81.4121 776.132 82.291 776.066 83.0723L775.871 84.7812C775.806 85.237 775.757 85.6927 775.725 86.1484C775.692 86.6042 775.676 87.0273 775.676 87.418C775.676 89.5013 775.692 91.5846 775.725 93.668C775.757 95.7188 775.806 97.7858 775.871 99.8691C775.936 101.952 775.985 104.036 776.018 106.119C776.05 108.17 776.066 110.237 776.066 112.32ZM806.633 107.779C806.633 108.137 806.551 108.447 806.389 108.707C806.226 108.935 806.014 109.114 805.754 109.244C805.526 109.374 805.266 109.456 804.973 109.488C804.712 109.553 804.452 109.586 804.191 109.586C803.833 109.586 803.41 109.537 802.922 109.439C802.466 109.374 802.01 109.26 801.555 109.098C801.099 108.935 800.676 108.74 800.285 108.512C799.927 108.251 799.65 107.942 799.455 107.584C799.26 107.258 799.081 106.656 798.918 105.777C798.788 104.866 798.674 103.824 798.576 102.652C798.479 101.448 798.397 100.178 798.332 98.8438C798.267 97.4766 798.202 96.1745 798.137 94.9375C798.104 93.7005 798.072 92.5938 798.039 91.6172C798.039 90.6081 798.039 89.8594 798.039 89.3711C798.039 87.0924 798.072 84.8952 798.137 82.7793C798.234 80.6309 798.332 78.4336 798.43 76.1875C798.267 76.1875 798.104 76.2038 797.941 76.2363C797.779 76.2689 797.616 76.2852 797.453 76.2852C797.03 76.3503 796.59 76.3991 796.135 76.4316C795.712 76.4642 795.272 76.4805 794.816 76.4805C794.263 76.4805 793.775 76.3828 793.352 76.1875C792.928 75.9922 792.717 75.5527 792.717 74.8691C792.717 74.0553 792.896 73.4043 793.254 72.916C793.612 72.4277 794.068 72.0534 794.621 71.793C795.174 71.5 795.777 71.3047 796.428 71.207C797.079 71.0768 797.714 70.9792 798.332 70.9141C798.43 70.9141 798.495 70.9141 798.527 70.9141C798.56 70.8815 798.625 70.8652 798.723 70.8652C798.755 70.4746 798.788 70.0026 798.82 69.4492C798.853 68.8633 798.885 68.2285 798.918 67.5449C798.951 66.4707 798.999 65.3314 799.064 64.127C799.13 62.89 799.195 61.7181 799.26 60.6113C799.325 59.472 799.406 58.4792 799.504 57.6328C799.602 56.7539 799.699 56.1354 799.797 55.7773C799.96 55.3542 800.139 55.0124 800.334 54.752C800.562 54.4915 800.969 54.3613 801.555 54.3613C802.857 54.3613 803.866 54.7845 804.582 55.6309C805.298 56.4772 805.656 57.5189 805.656 58.7559C805.656 60.1882 805.607 61.6204 805.51 63.0527C805.445 64.485 805.38 65.9336 805.314 67.3984L805.168 69.8887C805.982 69.791 806.796 69.6445 807.609 69.4492C808.391 69.2865 809.172 69.14 809.953 69.0098C810.767 68.8796 811.548 68.8145 812.297 68.8145C812.948 68.8145 813.452 68.9935 813.811 69.3516C814.169 69.6771 814.348 70.1654 814.348 70.8164C814.348 71.5326 814.217 72.2324 813.957 72.916C813.697 73.5996 813.241 74.1204 812.59 74.4785H812.639C812.508 74.5436 812.118 74.6413 811.467 74.7715C810.816 74.8691 810.067 74.9668 809.221 75.0645C808.407 75.1621 807.593 75.2598 806.779 75.3574C805.998 75.4551 805.412 75.5202 805.021 75.5527H804.973C804.908 77.3757 804.859 79.1823 804.826 80.9727C804.794 82.7305 804.777 84.5208 804.777 86.3438C804.777 88.8503 804.842 91.5195 804.973 94.3516C805.135 97.151 805.396 99.8203 805.754 102.359L806.145 104.557C806.275 105.11 806.389 105.663 806.486 106.217C806.584 106.738 806.633 107.258 806.633 107.779ZM835.539 88.9805C835.539 91.8125 835.295 94.6445 834.807 97.4766C834.351 100.276 833.391 102.929 831.926 105.436C831.47 106.184 830.949 106.917 830.363 107.633C829.777 108.316 829.126 108.935 828.41 109.488C827.727 110.074 826.962 110.53 826.115 110.855C825.301 111.214 824.439 111.393 823.527 111.393C822.095 111.393 820.842 111.051 819.768 110.367C818.726 109.716 817.814 108.854 817.033 107.779C816.285 106.673 815.65 105.436 815.129 104.068C814.641 102.669 814.25 101.253 813.957 99.8203C813.697 98.3555 813.501 96.9395 813.371 95.5723C813.273 94.2051 813.225 93.0007 813.225 91.959C813.225 90.7871 813.273 89.5013 813.371 88.1016C813.469 86.7018 813.632 85.2695 813.859 83.8047C814.12 82.3398 814.445 80.8913 814.836 79.459C815.259 78.0267 815.796 76.6921 816.447 75.4551C817.098 74.1855 817.88 73.0625 818.791 72.0859C819.702 71.0768 820.76 70.2793 821.965 69.6934V69.7422C823.007 69.1888 824.048 68.9121 825.09 68.9121C825.741 68.9121 826.245 69.0586 826.604 69.3516C826.962 69.612 827.124 70.0677 827.092 70.7188C828.882 71.0443 830.331 71.9069 831.438 73.3066C832.544 74.7064 833.391 76.334 833.977 78.1895C834.595 80.0449 835.002 81.9492 835.197 83.9023C835.425 85.8555 835.539 87.5482 835.539 88.9805ZM824.504 76.7734C823.951 76.7734 823.43 76.5618 822.941 76.1387C822.323 77.0827 821.802 78.1732 821.379 79.4102C820.956 80.6146 820.614 81.8678 820.354 83.1699C820.126 84.4395 819.963 85.7253 819.865 87.0273C819.768 88.3294 819.719 89.5501 819.719 90.6895C819.719 91.6335 819.768 92.8542 819.865 94.3516C819.963 95.8164 820.142 97.2975 820.402 98.7949C820.695 100.292 821.086 101.692 821.574 102.994C822.095 104.296 822.762 105.257 823.576 105.875C824.585 105.289 825.415 104.361 826.066 103.092C826.75 101.79 827.287 100.374 827.678 98.8438C828.068 97.3138 828.329 95.7676 828.459 94.2051C828.622 92.6426 828.703 91.3079 828.703 90.2012C828.703 89.3874 828.654 88.3294 828.557 87.0273C828.459 85.7253 828.296 84.4069 828.068 83.0723C827.84 81.7051 827.515 80.4355 827.092 79.2637C826.701 78.0918 826.197 77.2129 825.578 76.627C825.285 76.7246 824.927 76.7734 824.504 76.7734ZM864.543 107.779C864.543 108.137 864.462 108.447 864.299 108.707C864.136 108.935 863.924 109.114 863.664 109.244C863.436 109.374 863.176 109.456 862.883 109.488C862.622 109.553 862.362 109.586 862.102 109.586C861.743 109.586 861.32 109.537 860.832 109.439C860.376 109.374 859.921 109.26 859.465 109.098C859.009 108.935 858.586 108.74 858.195 108.512C857.837 108.251 857.561 107.942 857.365 107.584C857.17 107.258 856.991 106.656 856.828 105.777C856.698 104.866 856.584 103.824 856.486 102.652C856.389 101.448 856.307 100.178 856.242 98.8438C856.177 97.4766 856.112 96.1745 856.047 94.9375C856.014 93.7005 855.982 92.5938 855.949 91.6172C855.949 90.6081 855.949 89.8594 855.949 89.3711C855.949 87.0924 855.982 84.8952 856.047 82.7793C856.145 80.6309 856.242 78.4336 856.34 76.1875C856.177 76.1875 856.014 76.2038 855.852 76.2363C855.689 76.2689 855.526 76.2852 855.363 76.2852C854.94 76.3503 854.501 76.3991 854.045 76.4316C853.622 76.4642 853.182 76.4805 852.727 76.4805C852.173 76.4805 851.685 76.3828 851.262 76.1875C850.839 75.9922 850.627 75.5527 850.627 74.8691C850.627 74.0553 850.806 73.4043 851.164 72.916C851.522 72.4277 851.978 72.0534 852.531 71.793C853.085 71.5 853.687 71.3047 854.338 71.207C854.989 71.0768 855.624 70.9792 856.242 70.9141C856.34 70.9141 856.405 70.9141 856.438 70.9141C856.47 70.8815 856.535 70.8652 856.633 70.8652C856.665 70.4746 856.698 70.0026 856.73 69.4492C856.763 68.8633 856.796 68.2285 856.828 67.5449C856.861 66.4707 856.91 65.3314 856.975 64.127C857.04 62.89 857.105 61.7181 857.17 60.6113C857.235 59.472 857.316 58.4792 857.414 57.6328C857.512 56.7539 857.609 56.1354 857.707 55.7773C857.87 55.3542 858.049 55.0124 858.244 54.752C858.472 54.4915 858.879 54.3613 859.465 54.3613C860.767 54.3613 861.776 54.7845 862.492 55.6309C863.208 56.4772 863.566 57.5189 863.566 58.7559C863.566 60.1882 863.518 61.6204 863.42 63.0527C863.355 64.485 863.29 65.9336 863.225 67.3984L863.078 69.8887C863.892 69.791 864.706 69.6445 865.52 69.4492C866.301 69.2865 867.082 69.14 867.863 69.0098C868.677 68.8796 869.458 68.8145 870.207 68.8145C870.858 68.8145 871.363 68.9935 871.721 69.3516C872.079 69.6771 872.258 70.1654 872.258 70.8164C872.258 71.5326 872.128 72.2324 871.867 72.916C871.607 73.5996 871.151 74.1204 870.5 74.4785H870.549C870.419 74.5436 870.028 74.6413 869.377 74.7715C868.726 74.8691 867.977 74.9668 867.131 75.0645C866.317 75.1621 865.503 75.2598 864.689 75.3574C863.908 75.4551 863.322 75.5202 862.932 75.5527H862.883C862.818 77.3757 862.769 79.1823 862.736 80.9727C862.704 82.7305 862.688 84.5208 862.688 86.3438C862.688 88.8503 862.753 91.5195 862.883 94.3516C863.046 97.151 863.306 99.8203 863.664 102.359L864.055 104.557C864.185 105.11 864.299 105.663 864.396 106.217C864.494 106.738 864.543 107.258 864.543 107.779ZM877.824 109.781C877.336 109.781 876.799 109.716 876.213 109.586C875.66 109.456 875.122 109.244 874.602 108.951C874.113 108.658 873.69 108.3 873.332 107.877C873.007 107.421 872.844 106.884 872.844 106.266C872.844 105.354 872.876 104.459 872.941 103.58C873.039 102.669 873.137 101.773 873.234 100.895V100.943L873.527 97.6719C873.625 96.5 873.706 95.2142 873.771 93.8145C873.837 92.4147 873.885 90.9987 873.918 89.5664C873.983 88.1016 874.032 86.6693 874.064 85.2695C874.097 83.8698 874.113 82.584 874.113 81.4121C874.113 80.7285 874.097 80.0449 874.064 79.3613C874.064 78.6452 874.064 77.929 874.064 77.2129C874.032 76.5944 874.016 75.9108 874.016 75.1621C874.016 74.3809 874.016 73.6647 874.016 73.0137C874.016 72.3301 874.097 71.7767 874.26 71.3535C874.455 70.8978 874.976 70.6699 875.822 70.6699C876.571 70.6699 877.352 70.8652 878.166 71.2559C879.012 71.6465 879.598 72.1999 879.924 72.916H879.875C880.038 73.2741 880.152 73.86 880.217 74.6738C880.314 75.4551 880.38 76.1549 880.412 76.7734C880.965 75.9271 881.584 75.0319 882.268 74.0879C882.984 73.1439 883.749 72.2812 884.562 71.5C885.376 70.6862 886.239 70.0189 887.15 69.498C888.062 68.9772 889.038 68.7168 890.08 68.7168C891.447 68.7168 892.489 69.0586 893.205 69.7422C893.921 70.4258 894.442 71.2884 894.768 72.3301C895.093 73.3392 895.272 74.4297 895.305 75.6016C895.337 76.7409 895.354 77.7826 895.354 78.7266V79.1172C895.354 79.5078 895.337 79.8984 895.305 80.2891C895.305 80.6471 895.24 80.9889 895.109 81.3145C895.012 81.6074 894.816 81.8516 894.523 82.0469C894.263 82.2422 893.889 82.3398 893.4 82.3398C892.88 82.3398 892.326 82.2747 891.74 82.1445C891.154 81.9818 890.601 81.7539 890.08 81.4609C889.592 81.168 889.169 80.8099 888.811 80.3867C888.452 79.931 888.257 79.4102 888.225 78.8242C888.225 78.5638 888.225 78.3034 888.225 78.043C888.225 77.7826 888.241 77.5221 888.273 77.2617C888.273 77.099 888.273 76.9036 888.273 76.6758C888.306 76.4154 888.322 76.1712 888.322 75.9434C887.281 76.985 886.353 78.2708 885.539 79.8008C884.758 81.3307 884.042 82.9583 883.391 84.6836C882.772 86.4089 882.235 88.1504 881.779 89.9082C881.324 91.6335 880.933 93.196 880.607 94.5957V94.7422C880.51 95.7513 880.445 96.7441 880.412 97.7207C880.38 98.6973 880.347 99.7064 880.314 100.748C880.282 101.92 880.233 103.108 880.168 104.312C880.135 105.517 880.054 106.689 879.924 107.828C879.859 108.447 879.663 108.919 879.338 109.244C879.045 109.602 878.54 109.781 877.824 109.781ZM916.887 108.365C916.887 109.016 916.724 109.456 916.398 109.684C916.073 109.944 915.617 110.074 915.031 110.074C913.501 110.074 912.395 109.667 911.711 108.854C911.06 108.04 910.572 106.965 910.246 105.631C910.148 105.175 910.051 104.719 909.953 104.264C909.855 103.775 909.774 103.303 909.709 102.848C909.644 102.424 909.579 102.132 909.514 101.969C909.449 101.806 909.383 101.497 909.318 101.041C908.928 101.985 908.439 102.978 907.854 104.02C907.3 105.029 906.649 105.973 905.9 106.852C905.152 107.698 904.305 108.398 903.361 108.951C902.45 109.505 901.441 109.781 900.334 109.781C899.162 109.781 898.186 109.505 897.404 108.951C896.623 108.365 896.005 107.649 895.549 106.803C895.126 105.924 894.816 104.964 894.621 103.922C894.458 102.88 894.377 101.887 894.377 100.943C894.377 98.7298 894.589 96.3372 895.012 93.7656C895.467 91.1615 896.086 88.5736 896.867 86.002C897.648 83.3978 898.56 80.9076 899.602 78.5312C900.643 76.1224 901.783 74.0228 903.02 72.2324V72.2812L903.312 71.8418C903.671 71.3535 904.077 70.8327 904.533 70.2793C905.021 69.6934 905.591 69.4004 906.242 69.4004C906.861 69.4004 907.398 69.6771 907.854 70.2305C908.309 70.7513 908.635 71.3047 908.83 71.8906C909.676 72.0534 910.36 72.265 910.881 72.5254C911.402 72.7533 911.809 73.0462 912.102 73.4043C912.395 73.7624 912.59 74.1855 912.688 74.6738C912.785 75.1296 912.834 75.6341 912.834 76.1875C912.834 76.4154 912.834 76.6595 912.834 76.9199C912.834 77.1803 912.818 77.4408 912.785 77.7012C912.753 77.9616 912.736 78.2708 912.736 78.6289C912.736 78.987 912.736 79.3125 912.736 79.6055C912.736 79.931 912.785 80.3542 912.883 80.875C913.013 81.3958 913.143 81.9329 913.273 82.4863L913.615 84.293C913.778 85.237 913.908 86.3112 914.006 87.5156C914.136 88.7201 914.283 89.9245 914.445 91.1289C914.576 92.3659 914.706 93.5703 914.836 94.7422C914.966 95.8815 915.096 96.9395 915.227 97.916L916.398 105.143L916.545 105.973C916.61 106.396 916.675 106.786 916.74 107.145C916.838 107.503 916.887 107.91 916.887 108.365ZM905.705 80.2891C905.705 80.224 905.689 80.1263 905.656 79.9961C905.624 79.8333 905.591 79.6706 905.559 79.5078C904.81 81.1029 904.143 82.8444 903.557 84.7324C903.003 86.5879 902.531 88.4922 902.141 90.4453C901.783 92.3659 901.506 94.3027 901.311 96.2559C901.148 98.1764 901.066 99.9993 901.066 101.725C901.066 101.887 901.066 102.034 901.066 102.164C901.066 102.294 901.083 102.424 901.115 102.555V102.604C901.896 101.399 902.564 99.8203 903.117 97.8672C903.703 95.8815 904.191 93.8145 904.582 91.666C904.973 89.485 905.249 87.3854 905.412 85.3672C905.607 83.3164 905.705 81.6237 905.705 80.2891ZM926.262 67.9355C926.262 68.4889 926.132 68.8958 925.871 69.1562C925.643 69.3841 925.204 69.498 924.553 69.498C924.26 69.498 923.804 69.4655 923.186 69.4004C922.567 69.3027 921.932 69.1725 921.281 69.0098C920.663 68.847 920.109 68.6191 919.621 68.3262C919.165 68.0332 918.938 67.6751 918.938 67.252C918.938 67.1217 918.986 66.7637 919.084 66.1777C919.182 65.5592 919.296 64.9082 919.426 64.2246C919.589 63.541 919.719 62.9225 919.816 62.3691C919.947 61.8158 920.044 61.5065 920.109 61.4414V61.4902C920.272 61.2298 920.467 61.0671 920.695 61.002C920.923 60.9368 921.151 60.9043 921.379 60.9043C921.672 60.9043 922.046 60.9531 922.502 61.0508C922.99 61.1159 923.462 61.2298 923.918 61.3926C924.406 61.5228 924.846 61.7018 925.236 61.9297C925.627 62.1576 925.871 62.4017 925.969 62.6621C926.066 62.9225 926.115 63.2806 926.115 63.7363C926.148 64.1595 926.148 64.5501 926.115 64.9082C926.115 65.0384 926.099 65.2012 926.066 65.3965C926.066 65.5592 926.066 65.6895 926.066 65.7871C926.066 65.9499 926.066 66.1126 926.066 66.2754C926.099 66.4382 926.132 66.6009 926.164 66.7637C926.197 66.9264 926.213 67.1055 926.213 67.3008C926.245 67.4961 926.262 67.7077 926.262 67.9355ZM928.068 106.852C928.068 107.6 927.889 108.137 927.531 108.463C927.206 108.756 926.669 108.902 925.92 108.902C925.529 108.902 925.09 108.854 924.602 108.756C924.146 108.658 923.69 108.528 923.234 108.365C922.779 108.17 922.355 107.942 921.965 107.682C921.574 107.421 921.281 107.128 921.086 106.803C920.956 106.607 920.842 106.005 920.744 104.996C920.646 103.987 920.565 102.734 920.5 101.236C920.467 99.7389 920.419 98.0625 920.354 96.207C920.321 94.3516 920.288 92.4798 920.256 90.5918C920.256 88.7038 920.256 86.8646 920.256 85.0742C920.256 83.2839 920.256 81.7214 920.256 80.3867V76.627C920.256 76.3014 920.256 75.9759 920.256 75.6504C920.288 75.3249 920.354 75.0482 920.451 74.8203C920.581 74.5599 920.76 74.3483 920.988 74.1855C921.249 74.0228 921.607 73.9414 922.062 73.9414C923.495 73.9414 924.536 74.3483 925.188 75.1621C925.871 75.9434 926.294 77.0013 926.457 78.3359C926.62 80.3216 926.734 82.3073 926.799 84.293C926.896 86.2461 926.978 88.2318 927.043 90.25C927.108 92.0729 927.157 93.8796 927.189 95.6699C927.255 97.4277 927.368 99.1855 927.531 100.943C927.564 101.301 927.596 101.643 927.629 101.969C927.661 102.294 927.71 102.62 927.775 102.945C927.84 103.596 927.906 104.247 927.971 104.898C928.036 105.517 928.068 106.168 928.068 106.852ZM940.52 108.756C940.52 109.505 940.292 109.993 939.836 110.221C939.413 110.449 938.892 110.562 938.273 110.562C937.72 110.562 937.167 110.514 936.613 110.416C936.092 110.351 935.588 110.204 935.1 109.977C934.644 109.749 934.237 109.439 933.879 109.049C933.553 108.658 933.326 108.154 933.195 107.535C932.74 105.582 932.479 103.678 932.414 101.822C932.349 99.9342 932.316 97.9974 932.316 96.0117V90.0059C932.316 87.2715 932.43 84.4395 932.658 81.5098C932.886 78.5475 933.13 75.6992 933.391 72.9648C933.391 72.8672 933.407 72.7533 933.439 72.623C933.472 72.4928 933.488 72.3952 933.488 72.3301C933.521 71.972 933.57 71.5814 933.635 71.1582C933.7 70.735 933.798 70.3607 933.928 70.0352C934.09 69.6771 934.302 69.3841 934.562 69.1562C934.855 68.9284 935.23 68.8145 935.686 68.8145C936.206 68.8145 936.695 68.9284 937.15 69.1562C937.639 69.3516 938.062 69.6283 938.42 69.9863C938.778 70.3118 939.055 70.7188 939.25 71.207C939.478 71.6953 939.592 72.1999 939.592 72.7207C939.592 73.2741 939.576 73.8926 939.543 74.5762C939.51 75.2272 939.462 75.8457 939.396 76.4316C939.396 76.5944 939.38 76.7734 939.348 76.9688C939.348 77.1641 939.331 77.3431 939.299 77.5059C939.755 76.5944 940.275 75.6504 940.861 74.6738C941.447 73.6647 942.115 72.7533 942.863 71.9395C943.645 71.0931 944.491 70.4095 945.402 69.8887C946.346 69.3678 947.388 69.1074 948.527 69.1074C949.471 69.1074 950.253 69.2539 950.871 69.5469C951.49 69.8398 951.978 70.263 952.336 70.8164C952.727 71.3372 952.987 71.9557 953.117 72.6719C953.28 73.388 953.361 74.153 953.361 74.9668C953.361 76.0736 953.329 77.1966 953.264 78.3359C953.199 79.4427 953.133 80.5495 953.068 81.6562C952.971 82.7956 952.889 83.9186 952.824 85.0254C952.759 86.1322 952.727 87.2552 952.727 88.3945C952.727 89.7617 952.759 91.1777 952.824 92.6426C952.889 94.0749 952.987 95.4583 953.117 96.793C953.247 98.0951 953.394 99.2832 953.557 100.357C953.719 101.399 953.882 102.213 954.045 102.799C954.175 103.287 954.305 103.857 954.436 104.508C954.598 105.126 954.745 105.777 954.875 106.461C955.038 107.112 955.168 107.747 955.266 108.365C955.363 108.984 955.412 109.537 955.412 110.025C955.412 110.742 955.119 111.197 954.533 111.393C953.98 111.588 953.426 111.686 952.873 111.686C952.32 111.686 951.685 111.637 950.969 111.539C950.285 111.474 949.667 111.295 949.113 111.002C948.43 110.514 947.974 109.83 947.746 108.951C947.551 108.072 947.421 107.21 947.355 106.363L947.209 105.045C947.111 104.264 946.981 103.238 946.818 101.969C946.656 100.699 946.493 99.2995 946.33 97.7695C946.2 96.2396 946.086 94.6608 945.988 93.0332C945.891 91.373 945.842 89.7617 945.842 88.1992C945.842 86.7995 945.891 85.4486 945.988 84.1465C946.118 82.8444 946.249 81.526 946.379 80.1914C946.444 79.5078 946.493 78.9544 946.525 78.5312C946.558 78.1081 946.607 77.5547 946.672 76.8711C946.021 77.9128 945.37 79.1335 944.719 80.5332C944.068 81.9329 943.449 83.3978 942.863 84.9277C942.277 86.4251 941.74 87.89 941.252 89.3223C940.796 90.7546 940.438 92.0078 940.178 93.082L939.885 94.1562C939.722 94.6771 939.576 95.1979 939.445 95.7188C939.348 96.2396 939.299 96.7279 939.299 97.1836C939.299 97.7695 939.331 98.4531 939.396 99.2344C939.462 99.9831 939.543 100.699 939.641 101.383C939.738 102.197 939.852 103.027 939.982 103.873C939.982 103.938 940.015 104.15 940.08 104.508C940.145 104.866 940.21 105.289 940.275 105.777C940.34 106.266 940.389 106.786 940.422 107.34C940.487 107.861 940.52 108.333 940.52 108.756ZM958.781 102.672C958.781 102.281 958.918 101.988 959.191 101.793C959.465 101.559 959.797 101.402 960.188 101.324C960.617 101.207 961.027 101.148 961.418 101.148C961.848 101.148 962.219 101.148 962.531 101.148C962.922 101.148 963.371 101.168 963.879 101.207C964.426 101.207 964.934 101.285 965.402 101.441C965.871 101.559 966.262 101.773 966.574 102.086C966.926 102.359 967.102 102.75 967.102 103.258C967.102 103.453 967.082 103.883 967.043 104.547C967.043 105.172 967.023 105.855 966.984 106.598C966.984 107.34 966.965 108.023 966.926 108.648C966.926 109.234 966.906 109.547 966.867 109.586C966.555 110.016 966.145 110.25 965.637 110.289C965.168 110.367 964.719 110.406 964.289 110.406C963.078 110.406 962.18 110.348 961.594 110.23C961.008 110.113 960.578 109.879 960.305 109.527C960.031 109.176 959.855 108.688 959.777 108.062C959.738 107.438 959.641 106.617 959.484 105.602C959.367 105.133 959.211 104.664 959.016 104.195C958.859 103.727 958.781 103.219 958.781 102.672Z" fill="black"/>
<path d="M26.8935 55.579C26.1696 52.361 28.2418 45.2581 32.4474 51.7648C38.2197 60.6957 39.5761 68.7684 39.8199 68.992L27.9334 57.0933L26.8935 55.579Z" stroke="#FF0505" stroke-width="3.675"/>
<path d="M20.1351 77.4278C17.1982 75.9264 13.0628 69.7909 20.7546 70.7189C31.3119 71.9925 38.3856 76.1123 38.7133 76.0679L21.9643 77.5967L20.1351 77.4278Z" stroke="#FF0505" stroke-width="3.675"/>
<path d="M78.9418 76.2013C81.8787 74.6999 86.0141 68.5644 78.3223 69.4923C67.765 70.766 60.6913 74.8858 60.3636 74.8413L77.1126 76.3702L78.9418 76.2013Z" stroke="#FF0505" stroke-width="3.675"/>
<path d="M65.5643 51.5403C68.4549 49.9516 75.8539 49.9708 70.7702 55.8172C63.7925 63.8417 56.4135 67.3856 56.2664 67.6818L64.3981 52.9597L65.5643 51.5403Z" stroke="#FF0505" stroke-width="3.675"/>
<path d="M45.7675 43.9259C47.0658 40.8938 52.9062 36.3511 52.503 44.0882C51.9496 54.7076 48.32 62.0449 48.3866 62.3688L45.7232 45.7624L45.7675 43.9259Z" stroke="#FF0505" stroke-width="3.675"/>
<path d="M26.8935 94.0499C26.1696 97.2679 28.2418 104.371 32.4474 97.8641C38.2197 88.9332 39.5761 80.8605 39.8199 80.6369L27.9334 92.5356L26.8935 94.0499Z" stroke="#FF0505" stroke-width="3.675"/>
<path d="M65.5643 93.1863C68.4549 94.775 75.8539 94.7558 70.7702 88.9093C63.7925 80.8849 56.4135 77.341 56.2664 77.0447L64.3981 91.7669L65.5643 93.1863Z" stroke="#FF0505" stroke-width="3.675"/>
<path d="M45.7675 100.801C47.0658 103.833 52.9062 108.375 52.503 100.638C51.9496 90.0189 48.32 82.6817 48.3866 82.3577L45.7232 98.9642L45.7675 100.801Z" stroke="#FF0505" stroke-width="3.675"/>
<circle cx="49" cy="74" r="47.1625" stroke="#FF0505" stroke-width="3.675"/>
<path d="M88.8125 73.3875C88.8125 95.739 70.9626 113.812 49 113.812C27.0373 113.812 9.18748 95.739 9.18748 73.3875C9.18748 51.036 27.0373 32.9625 49 32.9625C70.9626 32.9625 88.8125 51.036 88.8125 73.3875Z" stroke="#FF0505" stroke-width="3.675"/>
<mask id="path-12-inside-1" fill="white">
<ellipse cx="52.0393" cy="70.4115" rx="3.369" ry="1.44386" transform="rotate(-39.8999 52.0393 70.4115)"/>
</mask>
<path d="M52.4085 70.1028C51.91 69.5066 51.8813 68.8802 51.9034 68.6137C51.924 68.3645 51.9913 68.272 51.9466 68.3601C51.8622 68.5264 51.6005 68.8963 51.1131 69.3038L54.8178 73.7345C55.7579 72.9485 56.5811 71.99 57.097 70.9732C57.3524 70.4698 57.5986 69.8221 57.6592 69.0892C57.7212 68.3389 57.5935 67.3002 56.8392 66.3981L52.4085 70.1028ZM51.1131 69.3038C50.6258 69.7113 50.2153 69.9033 50.0367 69.9569C49.9421 69.9853 50.0451 69.9355 50.294 69.9593C50.5602 69.9849 51.1716 70.124 51.6701 70.7202L47.2394 74.4248C47.9936 75.3269 48.9932 75.6365 49.7427 75.7084C50.4748 75.7786 51.1558 75.6509 51.6965 75.4887C52.7885 75.1611 53.8777 74.5206 54.8178 73.7345L51.1131 69.3038ZM51.6701 70.7202C52.1686 71.3164 52.1973 71.9427 52.1752 72.2093C52.1546 72.4585 52.0873 72.551 52.1321 72.4629C52.2164 72.2966 52.4781 71.9266 52.9655 71.5192L49.2608 67.0885C48.3207 67.8745 47.4975 68.833 46.9816 69.8498C46.7262 70.3531 46.48 71.0008 46.4194 71.7338C46.3574 72.4841 46.4851 73.5227 47.2394 74.4248L51.6701 70.7202ZM52.9655 71.5192C53.4528 71.1117 53.8633 70.9196 54.0419 70.8661C54.1365 70.8377 54.0335 70.8875 53.7846 70.8636C53.5184 70.8381 52.907 70.699 52.4085 70.1028L56.8392 66.3981C56.085 65.496 55.0854 65.1865 54.3359 65.1146C53.6038 65.0444 52.9228 65.172 52.3821 65.3343C51.2901 65.6619 50.2009 66.3024 49.2608 67.0885L52.9655 71.5192Z" fill="#FF0505" mask="url(#path-12-inside-1)"/>
<mask id="path-14-inside-2" fill="white">
<ellipse cx="45.9762" cy="75.2357" rx="3.369" ry="1.44386" transform="rotate(-39.8999 45.9762 75.2357)"/>
</mask>
<path d="M46.3454 74.927C45.8469 74.3308 45.8182 73.7045 45.8403 73.4379C45.8609 73.1887 45.9282 73.0962 45.8834 73.1843C45.7991 73.3506 45.5374 73.7206 45.05 74.128L48.7547 78.5587C49.6948 77.7727 50.518 76.8142 51.0339 75.7974C51.2893 75.294 51.5355 74.6464 51.5961 73.9134C51.6581 73.1631 51.5304 72.1244 50.7761 71.2224L46.3454 74.927ZM45.05 74.128C44.5627 74.5355 44.1522 74.7276 43.9736 74.7811C43.879 74.8095 43.982 74.7597 44.2309 74.7835C44.4971 74.8091 45.1085 74.9482 45.607 75.5444L41.1763 79.2491C41.9305 80.1511 42.9301 80.4607 43.6796 80.5326C44.4117 80.6028 45.0927 80.4752 45.6334 80.3129C46.7254 79.9853 47.8146 79.3448 48.7547 78.5587L45.05 74.128ZM45.607 75.5444C46.1055 76.1406 46.1341 76.7669 46.1121 77.0335C46.0915 77.2827 46.0242 77.3752 46.0689 77.2871C46.1533 77.1208 46.415 76.7509 46.9024 76.3434L43.1977 71.9127C42.2576 72.6987 41.4344 73.6572 40.9185 74.674C40.6631 75.1774 40.4169 75.825 40.3563 76.558C40.2943 77.3083 40.422 78.347 41.1763 79.2491L45.607 75.5444ZM46.9024 76.3434C47.3897 75.9359 47.8001 75.7439 47.9788 75.6903C48.0734 75.6619 47.9704 75.7117 47.7215 75.6879C47.4553 75.6623 46.8439 75.5232 46.3454 74.927L50.7761 71.2224C50.0219 70.3203 49.0223 70.0107 48.2728 69.9388C47.5407 69.8686 46.8597 69.9963 46.319 70.1585C45.227 70.4861 44.1378 71.1266 43.1977 71.9127L46.9024 76.3434Z" fill="#FF0505" mask="url(#path-14-inside-2)"/>
<mask id="path-16-inside-3" fill="white">
<ellipse cx="46.6547" cy="69.7002" rx="3.369" ry="1.44386" transform="rotate(-130.319 46.6547 69.7002)"/>
</mask>
<path d="M46.3433 69.3332C45.7508 69.8361 45.1247 69.8693 44.858 69.8493C44.6086 69.8305 44.5156 69.7639 44.6041 69.808C44.771 69.8911 45.1428 70.1501 45.5539 70.6344L49.9573 66.8975C49.1645 65.9632 48.1999 65.1469 47.1794 64.6385C46.6742 64.3868 46.0247 64.1453 45.2914 64.0901C44.5406 64.0336 43.5029 64.1689 42.6064 64.9298L46.3433 69.3332ZM45.5539 70.6344C45.9649 71.1188 46.1599 71.5278 46.2148 71.706C46.2439 71.8005 46.1933 71.6979 46.2154 71.4488C46.239 71.1823 46.3736 70.57 46.9662 70.0671L50.7031 74.4706C51.5997 73.7098 51.9019 72.7079 51.9683 71.958C52.0331 71.2254 51.9005 70.5453 51.7343 70.0058C51.3987 68.9162 50.7502 67.8318 49.9573 66.8975L45.5539 70.6344ZM46.9662 70.0671C47.5587 69.5643 48.1848 69.531 48.4515 69.5511C48.7009 69.5699 48.7939 69.6365 48.7054 69.5924C48.5385 69.5093 48.1666 69.2503 47.7556 68.7659L43.3521 72.5029C44.145 73.4372 45.1095 74.2534 46.13 74.7619C46.6353 75.0136 47.2848 75.2551 48.0181 75.3102C48.7689 75.3667 49.8066 75.2315 50.7031 74.4706L46.9662 70.0671ZM47.7556 68.7659C47.3446 68.2816 47.1495 67.8726 47.0946 67.6944C47.0655 67.5999 47.1162 67.7025 47.0941 67.9516C47.0705 68.218 46.9359 68.8304 46.3433 69.3332L42.6064 64.9298C41.7098 65.6906 41.4076 66.6925 41.3412 67.4424C41.2763 68.175 41.409 68.8551 41.5751 69.3946C41.9108 70.4842 42.5592 71.5686 43.3521 72.5029L47.7556 68.7659Z" fill="#FF0505" mask="url(#path-16-inside-3)"/>
<mask id="path-18-inside-4" fill="white">
<ellipse rx="3.369" ry="1.44386" transform="matrix(0.635815 0.771841 0.771841 -0.635815 51.4406 75.7761)"/>
</mask>
<path d="M51.7466 76.1475C51.1467 76.6417 51.0031 77.252 50.9756 77.518C50.95 77.7667 50.9991 77.8701 50.9714 77.7752C50.9191 77.5962 50.73 77.1844 50.3261 76.6941L54.7838 73.022C55.563 73.9678 56.1955 75.0616 56.5151 76.156C56.6734 76.6979 56.7961 77.3798 56.7205 78.1114C56.6432 78.8603 56.3263 79.8576 55.4187 80.6052L51.7466 76.1475ZM50.3261 76.6941C49.9222 76.2038 49.5542 75.9394 49.3885 75.8538C49.3007 75.8084 49.3928 75.8764 49.6418 75.8988C49.9082 75.9228 50.5347 75.8987 51.1346 75.4046L47.4625 70.9469C48.37 70.1992 49.4096 70.0792 50.1594 70.1466C50.8919 70.2126 51.5378 70.4635 52.0393 70.7226C53.0523 71.2459 54.0047 72.0762 54.7838 73.022L50.3261 76.6941ZM51.1346 75.4046C51.7344 74.9104 51.878 74.3002 51.9055 74.0341C51.9312 73.7854 51.8821 73.682 51.9098 73.7769C51.9621 73.9559 52.1511 74.3677 52.555 74.858L48.0973 78.5301C47.3182 77.5843 46.6856 76.4905 46.366 75.3961C46.2077 74.8543 46.0851 74.1723 46.1606 73.4407C46.238 72.6918 46.5549 71.6945 47.4625 70.9469L51.1346 75.4046ZM52.555 74.858C52.9589 75.3483 53.3269 75.6127 53.4926 75.6983C53.5804 75.7437 53.4884 75.6757 53.2393 75.6533C52.9729 75.6293 52.3464 75.6534 51.7466 76.1475L55.4187 80.6052C54.5111 81.3529 53.4715 81.4729 52.7217 81.4055C51.9892 81.3395 51.3433 81.0886 50.8418 80.8295C49.8289 80.3062 48.8764 79.4759 48.0973 78.5301L52.555 74.858Z" fill="#FF0505" mask="url(#path-18-inside-4)"/>
<path d="M18.375 65.4262C17.9667 63.1804 19.2325 56.4846 22.6625 57.4646M35.5251 47.0504C35.9334 45.8254 37.4851 43.7429 40.4251 45.2129M58.1876 43.9895C59.8209 43.5801 62.8426 43.6191 61.8626 47.0504M75.3376 57.4646C76.9709 58.4854 80.1151 61.1396 79.6251 63.5896M76.5626 86.2521C78.6042 86.0479 82.0751 84.7821 79.6251 81.3521M63.7001 97.8896C63.0876 100.135 61.1276 104.26 58.1876 102.79M41.65 104.015C43.2833 104.627 36.0151 104.995 35.5251 101.565M18.375 82.5771C17.9667 85.2312 18.2526 89.3146 22.6626 89.3146" stroke="#FF0505" stroke-width="1.225"/>
</svg>
